Griffith_Gothic-Black_Italic.ufo
<glyph name="exclam" format="1">
  <advance width="281"/>
  <unicode hex="0021"/>
  <outline>
    <contour>
      <point x="346" y="720" type="line"/>
      <point x="175" y="235" type="line"/>
      <point x="87" y="235" type="line"/>
      <point x="165" y="720" type="line"/>
    </contour>
    <contour>
      <point x="179" y="76" type="curve" smooth="yes"/>
      <point x="179" y="29"/>
      <point x="143" y="-7"/>
      <point x="96" y="-7" type="curve" smooth="yes"/>
      <point x="48" y="-7"/>
      <point x="13" y="29"/>
      <point x="13" y="76" type="curve" smooth="yes"/>
      <point x="13" y="124"/>
      <point x="48" y="159"/>
      <point x="96" y="159" type="curve" smooth="yes"/>
      <point x="143" y="159"/>
      <point x="179" y="124"/>
    </contour>
  </outline>
</glyph>
<glyph name="numbersign" format="1">
  <advance width="647"/>
  <unicode hex="0023"/>
  <outline>
    <contour>
      <point x="685" y="564" type="line"/>
      <point x="654" y="442" type="line"/>
      <point x="533" y="442" type="line"/>
      <point x="477" y="278" type="line"/>
      <point x="600" y="278" type="line"/>
      <point x="569" y="156" type="line"/>
      <point x="434" y="156" type="line"/>
      <point x="380" y="0" type="line"/>
      <point x="307" y="0" type="line"/>
      <point x="361" y="156" type="line"/>
      <point x="194" y="156" type="line"/>
      <point x="140" y="0" type="line"/>
      <point x="66" y="0" type="line"/>
      <point x="120" y="156" type="line"/>
      <point x="12" y="156" type="line"/>
      <point x="43" y="278" type="line"/>
      <point x="163" y="278" type="line"/>
      <point x="219" y="442" type="line"/>
      <point x="97" y="442" type="line"/>
      <point x="127" y="564" type="line"/>
      <point x="262" y="564" type="line"/>
      <point x="316" y="720" type="line"/>
      <point x="390" y="720" type="line"/>
      <point x="336" y="564" type="line"/>
      <point x="502" y="564" type="line"/>
      <point x="556" y="720" type="line"/>
      <point x="630" y="720" type="line"/>
      <point x="576" y="564" type="line"/>
    </contour>
    <contour>
      <point x="464" y="446" type="line"/>
      <point x="293" y="446" type="line"/>
      <point x="233" y="274" type="line"/>
      <point x="404" y="274" type="line"/>
    </contour>
  </outline>
</glyph>
<glyph name="dollar" format="1">
  <advance width="588"/>
  <unicode hex="0024"/>
  <outline>
    <contour>
      <point x="613" y="617" type="curve"/>
      <point x="531" y="531" type="line"/>
      <point x="499" y="570"/>
      <point x="459" y="597"/>
      <point x="414" y="610" type="curve"/>
      <point x="364" y="411" type="line"/>
      <point x="489" y="358"/>
      <point x="541" y="307"/>
      <point x="541" y="215" type="curve" smooth="yes"/>
      <point x="541" y="87"/>
      <point x="442" y="1"/>
      <point x="275" y="1" type="curve" smooth="yes"/>
      <point x="274" y="1"/>
      <point x="273" y="1"/>
      <point x="272" y="1" type="curve"/>
      <point x="248" y="-95" type="line"/>
      <point x="166" y="-95" type="line"/>
      <point x="191" y="9" type="line"/>
      <point x="103" y="27"/>
      <point x="36" y="71"/>
      <point x="-10" y="125" type="curve"/>
      <point x="72" y="212" type="line"/>
      <point x="117" y="156"/>
      <point x="163" y="121"/>
      <point x="226" y="108" type="curve"/>
      <point x="280" y="324" type="line"/>
      <point x="174" y="371"/>
      <point x="112" y="417"/>
      <point x="112" y="510" type="curve" smooth="yes"/>
      <point x="112" y="642"/>
      <point x="222" y="719"/>
      <point x="364" y="719" type="curve" smooth="yes"/>
      <point x="366" y="719"/>
      <point x="367" y="719"/>
      <point x="368" y="719" type="curve"/>
      <point x="379" y="762" type="line"/>
      <point x="461" y="762" type="line"/>
      <point x="448" y="711" type="line"/>
      <point x="514" y="696"/>
      <point x="568" y="664"/>
    </contour>
    <contour>
      <point x="353" y="617" type="line"/>
      <point x="284" y="615"/>
      <point x="243" y="580"/>
      <point x="243" y="521" type="curve" smooth="yes"/>
      <point x="243" y="486"/>
      <point x="260" y="463"/>
      <point x="308" y="437" type="curve"/>
    </contour>
    <contour>
      <point x="410" y="204" type="curve" smooth="yes"/>
      <point x="410" y="244"/>
      <point x="389" y="271"/>
      <point x="336" y="299" type="curve"/>
      <point x="287" y="103" type="line"/>
      <point x="372" y="104"/>
      <point x="410" y="146"/>
    </contour>
  </outline>
</glyph>
<glyph name="ampersand" format="1">
  <advance width="714"/>
  <unicode hex="0026"/>
  <outline>
    <contour>
      <point x="710" y="376" type="line"/>
      <point x="653" y="286"/>
      <point x="588" y="206"/>
      <point x="526" y="145" type="curve"/>
      <point x="554" y="107"/>
      <point x="575" y="101"/>
      <point x="609" y="101" type="curve" smooth="yes"/>
      <point x="630" y="101"/>
      <point x="644" y="103"/>
      <point x="664" y="108" type="curve"/>
      <point x="637" y="0" type="line"/>
      <point x="612" y="-5"/>
      <point x="594" y="-7"/>
      <point x="570" y="-7" type="curve" smooth="yes"/>
      <point x="502" y="-7"/>
      <point x="463" y="10"/>
      <point x="423" y="63" type="curve"/>
      <point x="348" y="15"/>
      <point x="290" y="-10"/>
      <point x="204" y="-10" type="curve" smooth="yes"/>
      <point x="84" y="-10"/>
      <point x="6" y="50"/>
      <point x="6" y="160" type="curve" smooth="yes"/>
      <point x="6" y="275"/>
      <point x="81" y="358"/>
      <point x="229" y="420" type="curve"/>
      <point x="212" y="465"/>
      <point x="207" y="500"/>
      <point x="207" y="537" type="curve" smooth="yes"/>
      <point x="207" y="648"/>
      <point x="291" y="732"/>
      <point x="412" y="732" type="curve" smooth="yes"/>
      <point x="518" y="732"/>
      <point x="573" y="678"/>
      <point x="573" y="598" type="curve" smooth="yes"/>
      <point x="573" y="511"/>
      <point x="505" y="448"/>
      <point x="383" y="399" type="curve"/>
      <point x="415" y="328"/>
      <point x="440" y="280"/>
      <point x="471" y="230" type="curve"/>
      <point x="519" y="283"/>
      <point x="568" y="354"/>
      <point x="610" y="425" type="curve"/>
    </contour>
    <contour>
      <point x="459" y="590" type="curve" smooth="yes"/>
      <point x="459" y="623"/>
      <point x="441" y="647"/>
      <point x="406" y="647" type="curve" smooth="yes"/>
      <point x="357" y="647"/>
      <point x="329" y="602"/>
      <point x="329" y="553" type="curve" smooth="yes"/>
      <point x="329" y="523"/>
      <point x="333" y="498"/>
      <point x="346" y="465" type="curve"/>
      <point x="426" y="499"/>
      <point x="459" y="536"/>
    </contour>
    <contour>
      <point x="370" y="139" type="curve"/>
      <point x="333" y="199"/>
      <point x="303" y="258"/>
      <point x="265" y="344" type="curve"/>
      <point x="187" y="304"/>
      <point x="152" y="253"/>
      <point x="152" y="192" type="curve" smooth="yes"/>
      <point x="152" y="132"/>
      <point x="192" y="96"/>
      <point x="258" y="96" type="curve" smooth="yes"/>
      <point x="295" y="96"/>
      <point x="332" y="111"/>
    </contour>
  </outline>
</glyph>
<glyph name="parenleft" format="1">
  <advance width="373"/>
  <unicode hex="0028"/>
  <outline>
    <contour>
      <point x="480" y="735" type="line"/>
      <point x="271" y="566"/>
      <point x="199" y="393"/>
      <point x="199" y="214" type="curve" smooth="yes"/>
      <point x="199" y="94"/>
      <point x="221" y="9"/>
      <point x="272" y="-95" type="curve"/>
      <point x="150" y="-95" type="line"/>
      <point x="89" y="-8"/>
      <point x="43" y="100"/>
      <point x="43" y="230" type="curve" smooth="yes"/>
      <point x="43" y="428"/>
      <point x="148" y="607"/>
      <point x="336" y="735" type="curve"/>
    </contour>
  </outline>
</glyph>
<glyph name="plus" format="1">
  <advance width="600"/>
  <unicode hex="002B"/>
  <outline>
    <contour>
      <point x="584" y="292" type="line"/>
      <point x="386" y="292" type="line"/>
      <point x="386" y="93" type="line"/>
      <point x="258" y="93" type="line"/>
      <point x="258" y="292" type="line"/>
      <point x="60" y="292" type="line"/>
      <point x="60" y="418" type="line"/>
      <point x="258" y="418" type="line"/>
      <point x="258" y="617" type="line"/>
      <point x="386" y="617" type="line"/>
      <point x="386" y="418" type="line"/>
      <point x="584" y="418" type="line"/>
    </contour>
  </outline>
</glyph>
<glyph name="period" format="1">
  <advance width="236"/>
  <unicode hex="002E"/>
  <outline>
    <contour>
      <point x="160" y="80" type="curve" smooth="yes"/>
      <point x="160" y="30"/>
      <point x="124" y="-7"/>
      <point x="74" y="-7" type="curve" smooth="yes"/>
      <point x="24" y="-7"/>
      <point x="-13" y="30"/>
      <point x="-13" y="80" type="curve" smooth="yes"/>
      <point x="-13" y="129"/>
      <point x="24" y="166"/>
      <point x="74" y="166" type="curve" smooth="yes"/>
      <point x="124" y="166"/>
      <point x="160" y="129"/>
    </contour>
  </outline>
</glyph>
<glyph name="zero" format="1">
  <advance width="616"/>
  <unicode hex="0030"/>
  <outline>
    <contour>
      <point x="616" y="492" type="line" smooth="yes"/>
      <point x="616" y="451"/>
      <point x="608" y="385"/>
      <point x="599" y="344" type="curve" smooth="yes"/>
      <point x="545" y="106"/>
      <point x="434" y="-12"/>
      <point x="265" y="-12" type="curve" smooth="yes"/>
      <point x="130" y="-12"/>
      <point x="46" y="75"/>
      <point x="46" y="224" type="curve" smooth="yes"/>
      <point x="46" y="228" type="line" smooth="yes"/>
      <point x="46" y="269"/>
      <point x="54" y="335"/>
      <point x="63" y="376" type="curve" smooth="yes"/>
      <point x="118" y="614"/>
      <point x="227" y="732"/>
      <point x="397" y="732" type="curve" smooth="yes"/>
      <point x="531" y="732"/>
      <point x="616" y="645"/>
      <point x="616" y="496" type="curve" smooth="yes"/>
    </contour>
    <contour>
      <point x="460" y="500" type="curve" smooth="yes"/>
      <point x="460" y="503" type="line" smooth="yes"/>
      <point x="460" y="569"/>
      <point x="436" y="611"/>
      <point x="383" y="611" type="curve" smooth="yes"/>
      <point x="317" y="611"/>
      <point x="269" y="542"/>
      <point x="230" y="398" type="curve" smooth="yes"/>
      <point x="209" y="323"/>
      <point x="202" y="262"/>
      <point x="202" y="220" type="curve" smooth="yes"/>
      <point x="202" y="217" type="line" smooth="yes"/>
      <point x="202" y="151"/>
      <point x="225" y="109"/>
      <point x="279" y="109" type="curve" smooth="yes"/>
      <point x="345" y="109"/>
      <point x="392" y="178"/>
      <point x="431" y="322" type="curve" smooth="yes"/>
      <point x="452" y="397"/>
      <point x="460" y="458"/>
    </contour>
  </outline>
</glyph>
<glyph name="three" format="1">
  <advance width="543"/>
  <unicode hex="0033"/>
  <outline>
    <contour>
      <point x="551" y="583" type="curve" smooth="yes"/>
      <point x="551" y="493"/>
      <point x="483" y="438"/>
      <point x="359" y="399" type="curve"/>
      <point x="359" y="395" type="line"/>
      <point x="455" y="389"/>
      <point x="516" y="345"/>
      <point x="516" y="251" type="curve" smooth="yes"/>
      <point x="516" y="95"/>
      <point x="339" y="-5"/>
      <point x="78" y="-5" type="curve" smooth="yes"/>
      <point x="38" y="-5"/>
      <point x="-3" y="-3"/>
      <point x="-44" y="1" type="curve"/>
      <point x="-21" y="109" type="line"/>
      <point x="12" y="107"/>
      <point x="35" y="105"/>
      <point x="65" y="105" type="curve" smooth="yes"/>
      <point x="249" y="105"/>
      <point x="358" y="160"/>
      <point x="358" y="248" type="curve" smooth="yes"/>
      <point x="358" y="303"/>
      <point x="319" y="328"/>
      <point x="262" y="328" type="curve" smooth="yes"/>
      <point x="237" y="328"/>
      <point x="211" y="324"/>
      <point x="183" y="319" type="curve"/>
      <point x="169" y="411" type="line"/>
      <point x="357" y="459"/>
      <point x="399" y="502"/>
      <point x="399" y="559" type="curve" smooth="yes"/>
      <point x="399" y="598"/>
      <point x="375" y="620"/>
      <point x="326" y="620" type="curve" smooth="yes"/>
      <point x="277" y="620"/>
      <point x="227" y="600"/>
      <point x="167" y="556" type="curve"/>
      <point x="104" y="637" type="line"/>
      <point x="188" y="700"/>
      <point x="271" y="732"/>
      <point x="361" y="732" type="curve" smooth="yes"/>
      <point x="484" y="732"/>
      <point x="551" y="675"/>
    </contour>
  </outline>
</glyph>
<glyph name="five" format="1">
  <advance width="566"/>
  <unicode hex="0035"/>
  <outline>
    <contour>
      <point x="590" y="720" type="line"/>
      <point x="564" y="596" type="line"/>
      <point x="258" y="596" type="line"/>
      <point x="203" y="416" type="line"/>
      <point x="210" y="416" type="line"/>
      <point x="254" y="452"/>
      <point x="297" y="475"/>
      <point x="361" y="475" type="curve" smooth="yes"/>
      <point x="469" y="475"/>
      <point x="537" y="407"/>
      <point x="537" y="287" type="curve" smooth="yes"/>
      <point x="537" y="284" type="line" smooth="yes"/>
      <point x="537" y="102"/>
      <point x="418" y="-10"/>
      <point x="226" y="-10" type="curve" smooth="yes"/>
      <point x="125" y="-10"/>
      <point x="51" y="12"/>
      <point x="-32" y="60" type="curve"/>
      <point x="32" y="167" type="line"/>
      <point x="94" y="131"/>
      <point x="157" y="109"/>
      <point x="223" y="109" type="curve" smooth="yes"/>
      <point x="317" y="109"/>
      <point x="380" y="171"/>
      <point x="380" y="263" type="curve" smooth="yes"/>
      <point x="380" y="267" type="line" smooth="yes"/>
      <point x="380" y="334"/>
      <point x="343" y="365"/>
      <point x="293" y="365" type="curve" smooth="yes"/>
      <point x="248" y="365"/>
      <point x="219" y="347"/>
      <point x="177" y="315" type="curve"/>
      <point x="67" y="315" type="line"/>
      <point x="185" y="720" type="line"/>
    </contour>
  </outline>
</glyph>
<glyph name="eight" format="1">
  <advance width="600"/>
  <unicode hex="0038"/>
  <outline>
    <contour>
      <point x="607" y="558" type="curve" smooth="yes"/>
      <point x="607" y="463"/>
      <point x="536" y="397"/>
      <point x="456" y="375" type="curve"/>
      <point x="455" y="369" type="line"/>
      <point x="511" y="345"/>
      <point x="556" y="295"/>
      <point x="556" y="219" type="curve" smooth="yes"/>
      <point x="556" y="84"/>
      <point x="443" y="-12"/>
      <point x="272" y="-12" type="curve" smooth="yes"/>
      <point x="117" y="-12"/>
      <point x="20" y="60"/>
      <point x="20" y="179" type="curve" smooth="yes"/>
      <point x="20" y="293"/>
      <point x="102" y="367"/>
      <point x="199" y="393" type="curve"/>
      <point x="200" y="399" type="line"/>
      <point x="146" y="430"/>
      <point x="116" y="471"/>
      <point x="116" y="534" type="curve" smooth="yes"/>
      <point x="116" y="646"/>
      <point x="220" y="732"/>
      <point x="373" y="732" type="curve" smooth="yes"/>
      <point x="519" y="732"/>
      <point x="607" y="665"/>
    </contour>
    <contour>
      <point x="458" y="544" type="curve" smooth="yes"/>
      <point x="458" y="597"/>
      <point x="423" y="628"/>
      <point x="368" y="628" type="curve" smooth="yes"/>
      <point x="302" y="628"/>
      <point x="261" y="571"/>
      <point x="261" y="514" type="curve" smooth="yes"/>
      <point x="261" y="458"/>
      <point x="298" y="425"/>
      <point x="347" y="425" type="curve" smooth="yes"/>
      <point x="415" y="425"/>
      <point x="458" y="486"/>
    </contour>
    <contour>
      <point x="410" y="230" type="curve" smooth="yes"/>
      <point x="410" y="293"/>
      <point x="368" y="335"/>
      <point x="304" y="335" type="curve" smooth="yes"/>
      <point x="228" y="335"/>
      <point x="172" y="268"/>
      <point x="172" y="196" type="curve" smooth="yes"/>
      <point x="172" y="133"/>
      <point x="212" y="92"/>
      <point x="278" y="92" type="curve" smooth="yes"/>
      <point x="357" y="92"/>
      <point x="410" y="157"/>
    </contour>
  </outline>
</glyph>
<glyph name="colon" format="1">
  <advance width="249"/>
  <unicode hex="003A"/>
  <outline>
    <contour>
      <point x="258" y="452" type="curve" smooth="yes"/>
      <point x="258" y="402"/>
      <point x="221" y="365"/>
      <point x="171" y="365" type="curve" smooth="yes"/>
      <point x="121" y="365"/>
      <point x="84" y="402"/>
      <point x="84" y="452" type="curve" smooth="yes"/>
      <point x="84" y="501"/>
      <point x="121" y="538"/>
      <point x="171" y="538" type="curve" smooth="yes"/>
      <point x="221" y="538"/>
      <point x="258" y="501"/>
    </contour>
    <contour>
      <point x="167" y="80" type="curve" smooth="yes"/>
      <point x="167" y="30"/>
      <point x="130" y="-7"/>
      <point x="80" y="-7" type="curve" smooth="yes"/>
      <point x="31" y="-7"/>
      <point x="-6" y="30"/>
      <point x="-6" y="80" type="curve" smooth="yes"/>
      <point x="-6" y="129"/>
      <point x="31" y="166"/>
      <point x="80" y="166" type="curve" smooth="yes"/>
      <point x="130" y="166"/>
      <point x="167" y="129"/>
    </contour>
  </outline>
</glyph>
<glyph name="semicolon" format="1">
  <advance width="249"/>
  <unicode hex="003B"/>
  <outline>
    <contour>
      <point x="261" y="452" type="curve" smooth="yes"/>
      <point x="261" y="402"/>
      <point x="224" y="365"/>
      <point x="174" y="365" type="curve" smooth="yes"/>
      <point x="125" y="365"/>
      <point x="88" y="402"/>
      <point x="88" y="452" type="curve" smooth="yes"/>
      <point x="88" y="501"/>
      <point x="125" y="538"/>
      <point x="174" y="538" type="curve" smooth="yes"/>
      <point x="224" y="538"/>
      <point x="261" y="501"/>
    </contour>
    <contour>
      <point x="192" y="165" type="line"/>
      <point x="17" y="-115" type="line"/>
      <point x="-70" y="-115" type="line"/>
      <point x="27" y="165" type="line"/>
    </contour>
  </outline>
</glyph>
<glyph name="less" format="1">
  <advance width="600"/>
  <unicode hex="003C"/>
  <outline>
    <contour>
      <point x="576" y="75" type="line"/>
      <point x="63" y="295" type="line"/>
      <point x="63" y="415" type="line"/>
      <point x="576" y="635" type="line"/>
      <point x="576" y="502" type="line"/>
      <point x="207" y="355" type="line"/>
      <point x="576" y="208" type="line"/>
    </contour>
  </outline>
</glyph>
<glyph name="question" format="1">
  <advance width="497"/>
  <unicode hex="003F"/>
  <outline>
    <contour>
      <point x="541" y="574" type="curve" smooth="yes"/>
      <point x="541" y="471"/>
      <point x="481" y="412"/>
      <point x="381" y="356" type="curve" smooth="yes"/>
      <point x="308" y="316"/>
      <point x="284" y="294"/>
      <point x="265" y="235" type="curve"/>
      <point x="165" y="235" type="line"/>
      <point x="176" y="342"/>
      <point x="207" y="382"/>
      <point x="295" y="435" type="curve" smooth="yes"/>
      <point x="352" y="469"/>
      <point x="390" y="506"/>
      <point x="390" y="553" type="curve" smooth="yes"/>
      <point x="390" y="594"/>
      <point x="364" y="616"/>
      <point x="323" y="616" type="curve" smooth="yes"/>
      <point x="281" y="616"/>
      <point x="241" y="588"/>
      <point x="192" y="518" type="curve"/>
      <point x="90" y="580" type="line"/>
      <point x="155" y="682"/>
      <point x="239" y="732"/>
      <point x="339" y="732" type="curve" smooth="yes"/>
      <point x="460" y="732"/>
      <point x="541" y="670"/>
    </contour>
    <contour>
      <point x="262" y="76" type="curve" smooth="yes"/>
      <point x="262" y="29"/>
      <point x="226" y="-7"/>
      <point x="179" y="-7" type="curve" smooth="yes"/>
      <point x="131" y="-7"/>
      <point x="96" y="29"/>
      <point x="96" y="76" type="curve" smooth="yes"/>
      <point x="96" y="124"/>
      <point x="131" y="159"/>
      <point x="179" y="159" type="curve" smooth="yes"/>
      <point x="226" y="159"/>
      <point x="262" y="124"/>
    </contour>
  </outline>
</glyph>
<glyph name="D" format="1">
  <advance width="635"/>
  <unicode hex="0044"/>
  <outline>
    <contour>
      <point x="638" y="477" type="line" smooth="yes"/>
      <point x="638" y="437"/>
      <point x="634" y="401"/>
      <point x="623" y="353" type="curve" smooth="yes"/>
      <point x="567" y="111"/>
      <point x="440" y="0"/>
      <point x="228" y="0" type="curve" smooth="yes"/>
      <point x="-8" y="0" type="line"/>
      <point x="171" y="720" type="line"/>
      <point x="371" y="720" type="line" smooth="yes"/>
      <point x="538" y="720"/>
      <point x="638" y="643"/>
      <point x="638" y="480" type="curve" smooth="yes"/>
    </contour>
    <contour>
      <point x="471" y="466" type="curve" smooth="yes"/>
      <point x="471" y="471" type="line" smooth="yes"/>
      <point x="471" y="553"/>
      <point x="426" y="599"/>
      <point x="349" y="599" type="curve" smooth="yes"/>
      <point x="297" y="599" type="line"/>
      <point x="179" y="121" type="line"/>
      <point x="238" y="121" type="line" smooth="yes"/>
      <point x="343" y="121"/>
      <point x="414" y="189"/>
      <point x="456" y="349" type="curve" smooth="yes"/>
      <point x="466" y="387"/>
      <point x="471" y="430"/>
    </contour>
  </outline>
</glyph>
<glyph name="E" format="1">
  <advance width="559"/>
  <unicode hex="0045"/>
  <outline>
    <contour>
      <point x="631" y="720" type="line"/>
      <point x="600" y="596" type="line"/>
      <point x="298" y="596" type="line"/>
      <point x="256" y="430" type="line"/>
      <point x="482" y="430" type="line"/>
      <point x="453" y="313" type="line"/>
      <point x="227" y="313" type="line"/>
      <point x="180" y="124" type="line"/>
      <point x="494" y="124" type="line"/>
      <point x="463" y="0" type="line"/>
      <point x="-8" y="0" type="line"/>
      <point x="171" y="720" type="line"/>
    </contour>
  </outline>
</glyph>
<glyph name="H" format="1">
  <advance width="644"/>
  <unicode hex="0048"/>
  <outline>
    <contour>
      <point x="699" y="720" type="line"/>
      <point x="520" y="0" type="line"/>
      <point x="360" y="0" type="line"/>
      <point x="435" y="303" type="line"/>
      <point x="227" y="303" type="line"/>
      <point x="152" y="0" type="line"/>
      <point x="-8" y="0" type="line"/>
      <point x="171" y="720" type="line"/>
      <point x="331" y="720" type="line"/>
      <point x="262" y="441" type="line"/>
      <point x="470" y="441" type="line"/>
      <point x="539" y="720" type="line"/>
    </contour>
  </outline>
</glyph>
<glyph name="I" format="1">
  <advance width="435"/>
  <unicode hex="0049"/>
  <outline>
    <contour>
      <point x="509" y="720" type="line"/>
      <point x="494" y="659" type="line"/>
      <point x="396" y="659" type="line"/>
      <point x="246" y="61" type="line"/>
      <point x="344" y="61" type="line"/>
      <point x="329" y="0" type="line"/>
      <point x="-27" y="0" type="line"/>
      <point x="-12" y="61" type="line"/>
      <point x="86" y="61" type="line"/>
      <point x="236" y="659" type="line"/>
      <point x="138" y="659" type="line"/>
      <point x="153" y="720" type="line"/>
    </contour>
  </outline>
</glyph>
<glyph name="L" format="1">
  <advance width="524"/>
  <unicode hex="004C"/>
  <outline>
    <contour>
      <point x="473" y="133" type="line"/>
      <point x="440" y="0" type="line"/>
      <point x="-8" y="0" type="line"/>
      <point x="171" y="720" type="line"/>
      <point x="331" y="720" type="line"/>
      <point x="185" y="133" type="line"/>
    </contour>
  </outline>
</glyph>
<glyph name="M" format="1">
  <advance width="882"/>
  <unicode hex="004D"/>
  <outline>
    <contour>
      <point x="937" y="720" type="line"/>
      <point x="757" y="0" type="line"/>
      <point x="610" y="0" type="line"/>
      <point x="746" y="545" type="line"/>
      <point x="739" y="545" type="line"/>
      <point x="450" y="0" type="line"/>
      <point x="293" y="0" type="line"/>
      <point x="277" y="545" type="line"/>
      <point x="270" y="545" type="line"/>
      <point x="134" y="0" type="line"/>
      <point x="-8" y="0" type="line"/>
      <point x="171" y="720" type="line"/>
      <point x="407" y="720" type="line"/>
      <point x="422" y="211" type="line"/>
      <point x="427" y="211" type="line"/>
      <point x="695" y="720" type="line"/>
    </contour>
  </outline>
</glyph>
<glyph name="N" format="1">
  <advance width="651"/>
  <unicode hex="004E"/>
  <outline>
    <contour>
      <point x="705" y="720" type="line"/>
      <point x="526" y="0" type="line"/>
      <point x="381" y="0" type="line"/>
      <point x="262" y="472" type="line"/>
      <point x="257" y="472" type="line"/>
      <point x="139" y="0" type="line"/>
      <point x="-8" y="0" type="line"/>
      <point x="171" y="720" type="line"/>
      <point x="331" y="720" type="line"/>
      <point x="442" y="274" type="line"/>
      <point x="447" y="274" type="line"/>
      <point x="558" y="720" type="line"/>
    </contour>
  </outline>
</glyph>
<glyph name="O" format="1">
  <advance width="642"/>
  <unicode hex="004F"/>
  <outline>
    <contour>
      <point x="642" y="489" type="line" smooth="yes"/>
      <point x="642" y="449"/>
      <point x="635" y="389"/>
      <point x="625" y="344" type="curve" smooth="yes"/>
      <point x="573" y="114"/>
      <point x="463" y="-12"/>
      <point x="280" y="-12" type="curve" smooth="yes"/>
      <point x="137" y="-12"/>
      <point x="47" y="76"/>
      <point x="47" y="227" type="curve" smooth="yes"/>
      <point x="47" y="231" type="line" smooth="yes"/>
      <point x="47" y="271"/>
      <point x="54" y="331"/>
      <point x="64" y="376" type="curve" smooth="yes"/>
      <point x="115" y="606"/>
      <point x="226" y="732"/>
      <point x="409" y="732" type="curve" smooth="yes"/>
      <point x="552" y="732"/>
      <point x="642" y="644"/>
      <point x="642" y="493" type="curve" smooth="yes"/>
    </contour>
    <contour>
      <point x="482" y="494" type="curve" smooth="yes"/>
      <point x="482" y="497" type="line" smooth="yes"/>
      <point x="482" y="563"/>
      <point x="454" y="611"/>
      <point x="396" y="611" type="curve" smooth="yes"/>
      <point x="325" y="611"/>
      <point x="273" y="537"/>
      <point x="234" y="394" type="curve" smooth="yes"/>
      <point x="215" y="322"/>
      <point x="207" y="266"/>
      <point x="207" y="226" type="curve" smooth="yes"/>
      <point x="207" y="223" type="line" smooth="yes"/>
      <point x="207" y="157"/>
      <point x="235" y="109"/>
      <point x="293" y="109" type="curve" smooth="yes"/>
      <point x="363" y="109"/>
      <point x="415" y="183"/>
      <point x="454" y="326" type="curve" smooth="yes"/>
      <point x="473" y="398"/>
      <point x="482" y="454"/>
    </contour>
  </outline>
</glyph>
<glyph name="P" format="1">
  <advance width="588"/>
  <unicode hex="0050"/>
  <outline>
    <contour>
      <point x="624" y="535" type="curve" smooth="yes"/>
      <point x="624" y="376"/>
      <point x="501" y="276"/>
      <point x="316" y="276" type="curve" smooth="yes"/>
      <point x="220" y="276" type="line"/>
      <point x="152" y="0" type="line"/>
      <point x="-8" y="0" type="line"/>
      <point x="171" y="720" type="line"/>
      <point x="389" y="720" type="line" smooth="yes"/>
      <point x="543" y="720"/>
      <point x="624" y="656"/>
    </contour>
    <contour>
      <point x="466" y="520" type="curve" smooth="yes"/>
      <point x="466" y="580"/>
      <point x="430" y="607"/>
      <point x="355" y="607" type="curve" smooth="yes"/>
      <point x="297" y="607" type="line"/>
      <point x="243" y="391" type="line"/>
      <point x="317" y="391" type="line" smooth="yes"/>
      <point x="406" y="391"/>
      <point x="466" y="441"/>
    </contour>
  </outline>
</glyph>
<glyph name="Q" format="1">
  <advance width="642"/>
  <unicode hex="0051"/>
  <outline>
    <contour>
      <point x="642" y="489" type="line" smooth="yes"/>
      <point x="642" y="449"/>
      <point x="635" y="389"/>
      <point x="625" y="344" type="curve" smooth="yes"/>
      <point x="593" y="204"/>
      <point x="540" y="103"/>
      <point x="462" y="45" type="curve"/>
      <point x="475" y="18" type="line" smooth="yes"/>
      <point x="490" y="-13"/>
      <point x="512" y="-25"/>
      <point x="546" y="-25" type="curve" smooth="yes"/>
      <point x="559" y="-25"/>
      <point x="569" y="-24"/>
      <point x="583" y="-21" type="curve"/>
      <point x="558" y="-116" type="line"/>
      <point x="546" y="-118"/>
      <point x="537" y="-119"/>
      <point x="525" y="-119" type="curve" smooth="yes"/>
      <point x="454" y="-119"/>
      <point x="414" y="-102"/>
      <point x="387" y="-38" type="curve" smooth="yes"/>
      <point x="371" y="0" type="line"/>
      <point x="343" y="-8"/>
      <point x="313" y="-12"/>
      <point x="280" y="-12" type="curve" smooth="yes"/>
      <point x="137" y="-12"/>
      <point x="47" y="76"/>
      <point x="47" y="227" type="curve" smooth="yes"/>
      <point x="47" y="231" type="line" smooth="yes"/>
      <point x="47" y="271"/>
      <point x="54" y="331"/>
      <point x="64" y="376" type="curve" smooth="yes"/>
      <point x="115" y="606"/>
      <point x="226" y="732"/>
      <point x="409" y="732" type="curve" smooth="yes"/>
      <point x="552" y="732"/>
      <point x="642" y="644"/>
      <point x="642" y="493" type="curve" smooth="yes"/>
    </contour>
    <contour>
      <point x="482" y="494" type="curve" smooth="yes"/>
      <point x="482" y="497" type="line" smooth="yes"/>
      <point x="482" y="563"/>
      <point x="454" y="611"/>
      <point x="396" y="611" type="curve" smooth="yes"/>
      <point x="325" y="611"/>
      <point x="271" y="530"/>
      <point x="232" y="387" type="curve" smooth="yes"/>
      <point x="212" y="316"/>
      <point x="203" y="253"/>
      <point x="203" y="213" type="curve" smooth="yes"/>
      <point x="203" y="209" type="line" smooth="yes"/>
      <point x="203" y="144"/>
      <point x="231" y="96"/>
      <point x="289" y="96" type="curve" smooth="yes"/>
      <point x="307" y="96"/>
      <point x="323" y="100"/>
      <point x="338" y="107" type="curve"/>
      <point x="291" y="222" type="line"/>
      <point x="353" y="252" type="line"/>
      <point x="393" y="163" type="line"/>
      <point x="415" y="200"/>
      <point x="433" y="252"/>
      <point x="452" y="320" type="curve" smooth="yes"/>
      <point x="472" y="391"/>
      <point x="482" y="454"/>
    </contour>
  </outline>
</glyph>
<glyph name="R" format="1">
  <advance width="617"/>
  <unicode hex="0052"/>
  <outline>
    <contour>
      <point x="630" y="537" type="curve" smooth="yes"/>
      <point x="630" y="420"/>
      <point x="551" y="342"/>
      <point x="435" y="312" type="curve"/>
      <point x="543" y="0" type="line"/>
      <point x="375" y="0" type="line"/>
      <point x="282" y="290" type="line"/>
      <point x="224" y="290" type="line"/>
      <point x="152" y="0" type="line"/>
      <point x="-8" y="0" type="line"/>
      <point x="171" y="720" type="line"/>
      <point x="396" y="720" type="line" smooth="yes"/>
      <point x="550" y="720"/>
      <point x="630" y="657"/>
    </contour>
    <contour>
      <point x="472" y="522" type="curve" smooth="yes"/>
      <point x="472" y="581"/>
      <point x="436" y="607"/>
      <point x="362" y="607" type="curve" smooth="yes"/>
      <point x="297" y="607" type="line"/>
      <point x="244" y="396" type="line"/>
      <point x="324" y="396" type="line" smooth="yes"/>
      <point x="414" y="396"/>
      <point x="472" y="442"/>
    </contour>
  </outline>
</glyph>
<glyph name="S" format="1">
  <advance width="587"/>
  <unicode hex="0053"/>
  <outline>
    <contour>
      <point x="625" y="594" type="curve"/>
      <point x="504" y="513" type="line"/>
      <point x="470" y="574"/>
      <point x="422" y="612"/>
      <point x="356" y="612" type="curve" smooth="yes"/>
      <point x="291" y="612"/>
      <point x="259" y="573"/>
      <point x="259" y="531" type="curve" smooth="yes"/>
      <point x="259" y="488"/>
      <point x="276" y="464"/>
      <point x="375" y="423" type="curve" smooth="yes"/>
      <point x="497" y="372"/>
      <point x="546" y="314"/>
      <point x="546" y="219" type="curve" smooth="yes"/>
      <point x="546" y="77"/>
      <point x="432" y="-10"/>
      <point x="277" y="-10" type="curve" smooth="yes"/>
      <point x="130" y="-10"/>
      <point x="32" y="48"/>
      <point x="-12" y="141" type="curve"/>
      <point x="105" y="226" type="line"/>
      <point x="137" y="152"/>
      <point x="201" y="108"/>
      <point x="287" y="108" type="curve" smooth="yes"/>
      <point x="357" y="108"/>
      <point x="393" y="148"/>
      <point x="393" y="197" type="curve" smooth="yes"/>
      <point x="393" y="238"/>
      <point x="379" y="265"/>
      <point x="281" y="305" type="curve" smooth="yes"/>
      <point x="150" y="358"/>
      <point x="105" y="414"/>
      <point x="105" y="509" type="curve" smooth="yes"/>
      <point x="105" y="639"/>
      <point x="215" y="730"/>
      <point x="367" y="730" type="curve" smooth="yes"/>
      <point x="505" y="730"/>
      <point x="582" y="676"/>
    </contour>
  </outline>
</glyph>
<glyph name="T" format="1">
  <advance width="587"/>
  <unicode hex="0054"/>
  <outline>
    <contour>
      <point x="681" y="720" type="line"/>
      <point x="648" y="587" type="line"/>
      <point x="453" y="587" type="line"/>
      <point x="308" y="0" type="line"/>
      <point x="148" y="0" type="line"/>
      <point x="293" y="587" type="line"/>
      <point x="98" y="587" type="line"/>
      <point x="132" y="720" type="line"/>
    </contour>
  </outline>
</glyph>
<glyph name="U" format="1">
  <advance width="629"/>
  <unicode hex="0055"/>
  <outline>
    <contour>
      <point x="690" y="720" type="line"/>
      <point x="569" y="236" type="line" smooth="yes"/>
      <point x="525" y="61"/>
      <point x="422" y="-12"/>
      <point x="282" y="-12" type="curve" smooth="yes"/>
      <point x="134" y="-12"/>
      <point x="43" y="51"/>
      <point x="43" y="180" type="curve" smooth="yes"/>
      <point x="43" y="215"/>
      <point x="49" y="254"/>
      <point x="57" y="287" type="curve" smooth="yes"/>
      <point x="165" y="720" type="line"/>
      <point x="325" y="720" type="line"/>
      <point x="215" y="280" type="line" smooth="yes"/>
      <point x="208" y="252"/>
      <point x="204" y="222"/>
      <point x="204" y="202" type="curve" smooth="yes"/>
      <point x="204" y="146"/>
      <point x="235" y="114"/>
      <point x="293" y="114" type="curve" smooth="yes"/>
      <point x="351" y="114"/>
      <point x="398" y="156"/>
      <point x="421" y="249" type="curve" smooth="yes"/>
      <point x="538" y="720" type="line"/>
    </contour>
  </outline>
</glyph>
<glyph name="V" format="1">
  <advance width="657"/>
  <unicode hex="0056"/>
  <outline>
    <contour>
      <point x="755" y="720" type="line"/>
      <point x="349" y="-5" type="line"/>
      <point x="172" y="-5" type="line"/>
      <point x="129" y="720" type="line"/>
      <point x="290" y="720" type="line"/>
      <point x="299" y="167" type="line"/>
      <point x="304" y="167" type="line"/>
      <point x="588" y="720" type="line"/>
    </contour>
  </outline>
</glyph>
<glyph name="bracketleft" format="1">
  <advance width="389"/>
  <unicode hex="005B"/>
  <outline>
    <contour>
      <point x="479" y="720" type="line"/>
      <point x="464" y="659" type="line"/>
      <point x="299" y="665" type="line"/>
      <point x="128" y="-25" type="line"/>
      <point x="295" y="-19" type="line"/>
      <point x="279" y="-80" type="line"/>
      <point x="-29" y="-90" type="line"/>
      <point x="174" y="730" type="line"/>
    </contour>
  </outline>
</glyph>
<glyph name="backslash" format="1">
  <advance width="438"/>
  <unicode hex="005C"/>
  <outline>
    <contour>
      <point x="368" y="-95" type="line"/>
      <point x="238" y="-95" type="line"/>
      <point x="127" y="735" type="line"/>
      <point x="256" y="735" type="line"/>
    </contour>
  </outline>
</glyph>
<glyph name="asciicircum" format="1">
  <advance width="550"/>
  <unicode hex="005E"/>
  <outline>
    <contour>
      <point x="554" y="407" type="line"/>
      <point x="460" y="407" type="line"/>
      <point x="360" y="597" type="line"/>
      <point x="167" y="407" type="line"/>
      <point x="64" y="407" type="line"/>
      <point x="318" y="725" type="line"/>
      <point x="459" y="725" type="line"/>
    </contour>
  </outline>
</glyph>
<glyph name="e" format="1">
  <advance width="494"/>
  <unicode hex="0065"/>
  <outline>
    <contour>
      <point x="478" y="366" type="curve" smooth="yes"/>
      <point x="478" y="326"/>
      <point x="470" y="282"/>
      <point x="456" y="231" type="curve"/>
      <point x="161" y="231" type="line"/>
      <point x="159" y="217"/>
      <point x="158" y="203"/>
      <point x="158" y="190" type="curve" smooth="yes"/>
      <point x="158" y="188" type="line" smooth="yes"/>
      <point x="158" y="124"/>
      <point x="192" y="94"/>
      <point x="251" y="94" type="curve" smooth="yes"/>
      <point x="292" y="94"/>
      <point x="343" y="109"/>
      <point x="401" y="135" type="curve"/>
      <point x="416" y="38" type="line"/>
      <point x="347" y="8"/>
      <point x="297" y="-8"/>
      <point x="219" y="-8" type="curve" smooth="yes"/>
      <point x="86" y="-8"/>
      <point x="20" y="57"/>
      <point x="20" y="179" type="curve" smooth="yes"/>
      <point x="20" y="181" type="line" smooth="yes"/>
      <point x="20" y="211"/>
      <point x="26" y="253"/>
      <point x="35" y="289" type="curve" smooth="yes"/>
      <point x="76" y="449"/>
      <point x="170" y="542"/>
      <point x="302" y="542" type="curve" smooth="yes"/>
      <point x="426" y="542"/>
      <point x="478" y="470"/>
    </contour>
    <contour>
      <point x="345" y="375" type="curve" smooth="yes"/>
      <point x="345" y="423"/>
      <point x="332" y="455"/>
      <point x="292" y="455" type="curve" smooth="yes"/>
      <point x="243" y="455"/>
      <point x="197" y="384"/>
      <point x="173" y="292" type="curve"/>
      <point x="332" y="292" type="line"/>
      <point x="340" y="325"/>
      <point x="345" y="355"/>
    </contour>
  </outline>
</glyph>
<glyph name="g" format="1">
  <advance width="545"/>
  <unicode hex="0067"/>
  <outline>
    <contour>
      <point x="557" y="517" type="line"/>
      <point x="439" y="46" type="line" smooth="yes"/>
      <point x="395" y="-130"/>
      <point x="311" y="-191"/>
      <point x="132" y="-191" type="curve" smooth="yes"/>
      <point x="64" y="-191"/>
      <point x="14" y="-181"/>
      <point x="-26" y="-166" type="curve"/>
      <point x="-2" y="-68" type="line"/>
      <point x="28" y="-68" type="line"/>
      <point x="43" y="-91"/>
      <point x="75" y="-112"/>
      <point x="133" y="-112" type="curve" smooth="yes"/>
      <point x="211" y="-112"/>
      <point x="258" y="-69"/>
      <point x="282" y="22" type="curve" smooth="yes"/>
      <point x="305" y="110" type="line"/>
      <point x="300" y="110" type="line"/>
      <point x="230" y="26"/>
      <point x="183" y="-8"/>
      <point x="128" y="-8" type="curve" smooth="yes"/>
      <point x="56" y="-8"/>
      <point x="18" y="50"/>
      <point x="18" y="139" type="curve" smooth="yes"/>
      <point x="18" y="141" type="line" smooth="yes"/>
      <point x="18" y="344"/>
      <point x="131" y="540"/>
      <point x="250" y="540" type="curve" smooth="yes"/>
      <point x="312" y="540"/>
      <point x="341" y="512"/>
      <point x="382" y="440" type="curve"/>
      <point x="387" y="440" type="line"/>
      <point x="412" y="541" type="line"/>
    </contour>
    <contour>
      <point x="361" y="356" type="curve" smooth="yes"/>
      <point x="361" y="412"/>
      <point x="338" y="449"/>
      <point x="303" y="449" type="curve" smooth="yes"/>
      <point x="234" y="449"/>
      <point x="168" y="285"/>
      <point x="168" y="174" type="curve" smooth="yes"/>
      <point x="168" y="122"/>
      <point x="180" y="94"/>
      <point x="216" y="94" type="curve" smooth="yes"/>
      <point x="284" y="94"/>
      <point x="361" y="275"/>
    </contour>
  </outline>
</glyph>
<glyph name="k" format="1">
  <advance width="540"/>
  <unicode hex="006B"/>
  <outline>
    <contour>
      <point x="598" y="532" type="line"/>
      <point x="365" y="271" type="line"/>
      <point x="474" y="0" type="line"/>
      <point x="316" y="0" type="line"/>
      <point x="216" y="272" type="line"/>
      <point x="216" y="278" type="line"/>
      <point x="434" y="532" type="line"/>
    </contour>
    <contour>
      <point x="323" y="757" type="line"/>
      <point x="135" y="0" type="line"/>
      <point x="-16" y="0" type="line"/>
      <point x="167" y="733" type="line"/>
    </contour>
  </outline>
</glyph>
<glyph name="l" format="1">
  <advance width="262"/>
  <unicode hex="006C"/>
  <outline>
    <contour>
      <point x="328" y="757" type="line"/>
      <point x="140" y="0" type="line"/>
      <point x="-10" y="0" type="line"/>
      <point x="172" y="733" type="line"/>
    </contour>
  </outline>
</glyph>
<glyph name="m" format="1">
  <advance width="824"/>
  <unicode hex="006D"/>
  <outline>
    <contour>
      <point x="816" y="440" type="curve" smooth="yes"/>
      <point x="816" y="423"/>
      <point x="812" y="401"/>
      <point x="807" y="379" type="curve" smooth="yes"/>
      <point x="713" y="0" type="line"/>
      <point x="562" y="0" type="line"/>
      <point x="648" y="343" type="line" smooth="yes"/>
      <point x="652" y="358"/>
      <point x="654" y="372"/>
      <point x="654" y="384" type="curve" smooth="yes"/>
      <point x="654" y="411"/>
      <point x="640" y="426"/>
      <point x="610" y="426" type="curve" smooth="yes"/>
      <point x="584" y="426"/>
      <point x="554" y="407"/>
      <point x="514" y="361" type="curve"/>
      <point x="424" y="0" type="line"/>
      <point x="273" y="0" type="line"/>
      <point x="359" y="343" type="line" smooth="yes"/>
      <point x="363" y="358"/>
      <point x="365" y="372"/>
      <point x="365" y="384" type="curve" smooth="yes"/>
      <point x="365" y="411"/>
      <point x="351" y="426"/>
      <point x="320" y="426" type="curve" smooth="yes"/>
      <point x="295" y="426"/>
      <point x="265" y="406"/>
      <point x="225" y="361" type="curve"/>
      <point x="135" y="0" type="line"/>
      <point x="-16" y="0" type="line"/>
      <point x="113" y="517" type="line"/>
      <point x="269" y="541" type="line"/>
      <point x="238" y="412" type="line"/>
      <point x="242" y="412" type="line"/>
      <point x="316" y="499"/>
      <point x="367" y="539"/>
      <point x="429" y="539" type="curve" smooth="yes"/>
      <point x="493" y="539"/>
      <point x="527" y="502"/>
      <point x="527" y="440" type="curve" smooth="yes"/>
      <point x="527" y="433"/>
      <point x="526" y="422"/>
      <point x="523" y="412" type="curve"/>
      <point x="530" y="412" type="line"/>
      <point x="604" y="499"/>
      <point x="656" y="539"/>
      <point x="718" y="539" type="curve" smooth="yes"/>
      <point x="782" y="539"/>
      <point x="816" y="502"/>
    </contour>
  </outline>
</glyph>
<glyph name="n" format="1">
  <advance width="537"/>
  <unicode hex="006E"/>
  <outline>
    <contour>
      <point x="529" y="440" type="curve" smooth="yes"/>
      <point x="529" y="423"/>
      <point x="525" y="401"/>
      <point x="520" y="379" type="curve" smooth="yes"/>
      <point x="426" y="0" type="line"/>
      <point x="275" y="0" type="line"/>
      <point x="361" y="343" type="line" smooth="yes"/>
      <point x="365" y="358"/>
      <point x="367" y="372"/>
      <point x="367" y="384" type="curve" smooth="yes"/>
      <point x="367" y="411"/>
      <point x="353" y="426"/>
      <point x="322" y="426" type="curve" smooth="yes"/>
      <point x="296" y="426"/>
      <point x="266" y="406"/>
      <point x="225" y="360" type="curve"/>
      <point x="135" y="0" type="line"/>
      <point x="-16" y="0" type="line"/>
      <point x="113" y="517" type="line"/>
      <point x="269" y="541" type="line"/>
      <point x="238" y="412" type="line"/>
      <point x="242" y="412" type="line"/>
      <point x="316" y="499"/>
      <point x="369" y="539"/>
      <point x="430" y="539" type="curve" smooth="yes"/>
      <point x="495" y="539"/>
      <point x="529" y="502"/>
    </contour>
  </outline>
</glyph>
<glyph name="o" format="1">
  <advance width="523"/>
  <unicode hex="006F"/>
  <outline>
    <contour>
      <point x="503" y="351" type="line" smooth="yes"/>
      <point x="503" y="321"/>
      <point x="497" y="281"/>
      <point x="488" y="245" type="curve" smooth="yes"/>
      <point x="449" y="88"/>
      <point x="360" y="-10"/>
      <point x="213" y="-10" type="curve" smooth="yes"/>
      <point x="92" y="-10"/>
      <point x="20" y="55"/>
      <point x="20" y="179" type="curve" smooth="yes"/>
      <point x="20" y="181" type="line" smooth="yes"/>
      <point x="20" y="211"/>
      <point x="26" y="251"/>
      <point x="35" y="287" type="curve" smooth="yes"/>
      <point x="75" y="444"/>
      <point x="164" y="542"/>
      <point x="310" y="542" type="curve" smooth="yes"/>
      <point x="431" y="542"/>
      <point x="503" y="477"/>
      <point x="503" y="353" type="curve" smooth="yes"/>
    </contour>
    <contour>
      <point x="358" y="373" type="curve" smooth="yes"/>
      <point x="358" y="375" type="line" smooth="yes"/>
      <point x="358" y="430"/>
      <point x="338" y="452"/>
      <point x="301" y="452" type="curve" smooth="yes"/>
      <point x="248" y="452"/>
      <point x="213" y="384"/>
      <point x="185" y="276" type="curve" smooth="yes"/>
      <point x="172" y="224"/>
      <point x="166" y="186"/>
      <point x="166" y="159" type="curve" smooth="yes"/>
      <point x="166" y="157" type="line" smooth="yes"/>
      <point x="166" y="102"/>
      <point x="186" y="80"/>
      <point x="222" y="80" type="curve" smooth="yes"/>
      <point x="276" y="80"/>
      <point x="311" y="148"/>
      <point x="339" y="257" type="curve" smooth="yes"/>
      <point x="352" y="309"/>
      <point x="358" y="346"/>
    </contour>
  </outline>
</glyph>
<glyph name="t" format="1">
  <advance width="417"/>
  <unicode hex="0074"/>
  <outline>
    <contour>
      <point x="447" y="529" type="line"/>
      <point x="422" y="428" type="line"/>
      <point x="290" y="428" type="line"/>
      <point x="229" y="182" type="line" smooth="yes"/>
      <point x="226" y="171"/>
      <point x="223" y="157"/>
      <point x="223" y="146" type="curve" smooth="yes"/>
      <point x="223" y="119"/>
      <point x="242" y="106"/>
      <point x="272" y="106" type="curve" smooth="yes"/>
      <point x="299" y="106"/>
      <point x="323" y="112"/>
      <point x="366" y="130" type="curve"/>
      <point x="338" y="17" type="line"/>
      <point x="285" y="-3"/>
      <point x="246" y="-10"/>
      <point x="192" y="-10" type="curve" smooth="yes"/>
      <point x="109" y="-10"/>
      <point x="66" y="28"/>
      <point x="66" y="96" type="curve" smooth="yes"/>
      <point x="66" y="111"/>
      <point x="68" y="135"/>
      <point x="73" y="154" type="curve" smooth="yes"/>
      <point x="142" y="428" type="line"/>
      <point x="51" y="428" type="line"/>
      <point x="76" y="529" type="line"/>
      <point x="167" y="529" type="line"/>
      <point x="211" y="706" type="line"/>
      <point x="365" y="729" type="line"/>
      <point x="315" y="529" type="line"/>
    </contour>
  </outline>
</glyph>
<glyph name="v" format="1">
  <advance width="530"/>
  <unicode hex="0076"/>
  <outline>
    <contour>
      <point x="583" y="532" type="line"/>
      <point x="280" y="-5" type="line"/>
      <point x="115" y="-5" type="line"/>
      <point x="79" y="532" type="line"/>
      <point x="229" y="532" type="line"/>
      <point x="235" y="149" type="line"/>
      <point x="431" y="532" type="line"/>
    </contour>
  </outline>
</glyph>
<glyph name="braceright" format="1">
  <advance width="442"/>
  <unicode hex="007D"/>
  <outline>
    <contour>
      <point x="448" y="350" type="curve"/>
      <point x="434" y="290" type="line"/>
      <point x="359" y="290"/>
      <point x="296" y="264"/>
      <point x="278" y="193" type="curve" smooth="yes"/>
      <point x="267" y="148"/>
      <point x="271" y="83"/>
      <point x="260" y="38" type="curve" smooth="yes"/>
      <point x="240" y="-43"/>
      <point x="185" y="-80"/>
      <point x="89" y="-80" type="curve" smooth="yes"/>
      <point x="-61" y="-80" type="line"/>
      <point x="-46" y="-19" type="line"/>
      <point x="29" y="-19" type="line" smooth="yes"/>
      <point x="83" y="-19"/>
      <point x="110" y="1"/>
      <point x="121" y="44" type="curve" smooth="yes"/>
      <point x="132" y="85"/>
      <point x="124" y="144"/>
      <point x="137" y="193" type="curve" smooth="yes"/>
      <point x="157" y="273"/>
      <point x="208" y="300"/>
      <point x="273" y="316" type="curve"/>
      <point x="275" y="324" type="line"/>
      <point x="219" y="343"/>
      <point x="197" y="366"/>
      <point x="197" y="412" type="curve" smooth="yes"/>
      <point x="197" y="478"/>
      <point x="260" y="562"/>
      <point x="260" y="613" type="curve" smooth="yes"/>
      <point x="260" y="642"/>
      <point x="241" y="659"/>
      <point x="198" y="659" type="curve" smooth="yes"/>
      <point x="123" y="659" type="line"/>
      <point x="139" y="720" type="line"/>
      <point x="281" y="720" type="line" smooth="yes"/>
      <point x="370" y="720"/>
      <point x="403" y="686"/>
      <point x="403" y="632" type="curve" smooth="yes"/>
      <point x="403" y="558"/>
      <point x="338" y="482"/>
      <point x="338" y="421" type="curve" smooth="yes"/>
      <point x="338" y="375"/>
      <point x="374" y="350"/>
    </contour>
  </outline>
</glyph>
<glyph name="sterling" format="1">
  <advance width="607"/>
  <unicode hex="00A3"/>
  <outline>
    <contour>
      <point x="651" y="567" type="curve"/>
      <point x="515" y="514" type="line"/>
      <point x="489" y="587"/>
      <point x="461" y="618"/>
      <point x="402" y="618" type="curve" smooth="yes"/>
      <point x="334" y="618"/>
      <point x="300" y="564"/>
      <point x="300" y="474" type="curve" smooth="yes"/>
      <point x="300" y="450"/>
      <point x="300" y="425"/>
      <point x="300" y="395" type="curve"/>
      <point x="482" y="395" type="line"/>
      <point x="464" y="320" type="line"/>
      <point x="300" y="320" type="line"/>
      <point x="298" y="252"/>
      <point x="283" y="189"/>
      <point x="259" y="145" type="curve"/>
      <point x="286" y="127"/>
      <point x="313" y="116"/>
      <point x="346" y="116" type="curve" smooth="yes"/>
      <point x="397" y="116"/>
      <point x="431" y="140"/>
      <point x="472" y="212" type="curve"/>
      <point x="567" y="177" type="line"/>
      <point x="510" y="46"/>
      <point x="444" y="-6"/>
      <point x="357" y="-6" type="curve" smooth="yes"/>
      <point x="295" y="-6"/>
      <point x="248" y="17"/>
      <point x="189" y="61" type="curve"/>
      <point x="137" y="22"/>
      <point x="65" y="-2"/>
      <point x="-27" y="-6" type="curve"/>
      <point x="-1" y="101" type="line"/>
      <point x="108" y="123"/>
      <point x="155" y="182"/>
      <point x="155" y="312" type="curve" smooth="yes"/>
      <point x="155" y="315"/>
      <point x="155" y="317"/>
      <point x="155" y="320" type="curve"/>
      <point x="46" y="320" type="line"/>
      <point x="65" y="395" type="line"/>
      <point x="155" y="395" type="line"/>
      <point x="155" y="429"/>
      <point x="155" y="459"/>
      <point x="155" y="467" type="curve" smooth="yes"/>
      <point x="155" y="633"/>
      <point x="243" y="732"/>
      <point x="408" y="732" type="curve" smooth="yes"/>
      <point x="556" y="732"/>
      <point x="612" y="670"/>
    </contour>
  </outline>
</glyph>
<glyph name="yen" format="1">
  <advance width="640"/>
  <unicode hex="00A5"/>
  <outline>
    <contour>
      <point x="743" y="720" type="line"/>
      <point x="495" y="405" type="line"/>
      <point x="619" y="405" type="line"/>
      <point x="600" y="330" type="line"/>
      <point x="436" y="330" type="line"/>
      <point x="400" y="284" type="line"/>
      <point x="382" y="214" type="line"/>
      <point x="572" y="214" type="line"/>
      <point x="553" y="139" type="line"/>
      <point x="363" y="139" type="line"/>
      <point x="329" y="0" type="line"/>
      <point x="179" y="0" type="line"/>
      <point x="213" y="139" type="line"/>
      <point x="24" y="139" type="line"/>
      <point x="43" y="214" type="line"/>
      <point x="232" y="214" type="line"/>
      <point x="249" y="281" type="line"/>
      <point x="235" y="330" type="line"/>
      <point x="71" y="330" type="line"/>
      <point x="90" y="405" type="line"/>
      <point x="214" y="405" type="line"/>
      <point x="124" y="720" type="line"/>
      <point x="284" y="720" type="line"/>
      <point x="355" y="408" type="line"/>
      <point x="582" y="720" type="line"/>
    </contour>
  </outline>
</glyph>
<glyph name="section" format="1">
  <advance width="606"/>
  <unicode hex="00A7"/>
  <outline>
    <contour>
      <point x="633" y="653" type="curve"/>
      <point x="572" y="562" type="line"/>
      <point x="509" y="602"/>
      <point x="424" y="629"/>
      <point x="359" y="629" type="curve" smooth="yes"/>
      <point x="314" y="629"/>
      <point x="292" y="614"/>
      <point x="292" y="590" type="curve" smooth="yes"/>
      <point x="292" y="566"/>
      <point x="312" y="552"/>
      <point x="412" y="518" type="curve" smooth="yes"/>
      <point x="566" y="467"/>
      <point x="603" y="426"/>
      <point x="603" y="368" type="curve" smooth="yes"/>
      <point x="603" y="294"/>
      <point x="534" y="242"/>
      <point x="420" y="242" type="curve"/>
      <point x="418" y="236" type="line"/>
      <point x="464" y="210"/>
      <point x="492" y="179"/>
      <point x="492" y="128" type="curve" smooth="yes"/>
      <point x="492" y="44"/>
      <point x="424" y="-12"/>
      <point x="288" y="-12" type="curve" smooth="yes"/>
      <point x="183" y="-12"/>
      <point x="90" y="19"/>
      <point x="17" y="67" type="curve"/>
      <point x="78" y="158" type="line"/>
      <point x="141" y="118"/>
      <point x="226" y="91"/>
      <point x="291" y="91" type="curve" smooth="yes"/>
      <point x="336" y="91"/>
      <point x="358" y="106"/>
      <point x="358" y="130" type="curve" smooth="yes"/>
      <point x="358" y="154"/>
      <point x="338" y="168"/>
      <point x="238" y="202" type="curve" smooth="yes"/>
      <point x="84" y="253"/>
      <point x="47" y="294"/>
      <point x="47" y="352" type="curve" smooth="yes"/>
      <point x="47" y="426"/>
      <point x="116" y="478"/>
      <point x="230" y="478" type="curve"/>
      <point x="232" y="484" type="line"/>
      <point x="186" y="510"/>
      <point x="158" y="541"/>
      <point x="158" y="592" type="curve" smooth="yes"/>
      <point x="158" y="676"/>
      <point x="226" y="732"/>
      <point x="362" y="732" type="curve" smooth="yes"/>
      <point x="467" y="732"/>
      <point x="560" y="701"/>
    </contour>
    <contour>
      <point x="478" y="339" type="curve" smooth="yes"/>
      <point x="478" y="361"/>
      <point x="459" y="384"/>
      <point x="392" y="411" type="curve" smooth="yes"/>
      <point x="358" y="425"/>
      <point x="307" y="437"/>
      <point x="268" y="437" type="curve" smooth="yes"/>
      <point x="205" y="437"/>
      <point x="172" y="415"/>
      <point x="172" y="381" type="curve" smooth="yes"/>
      <point x="172" y="359"/>
      <point x="191" y="336"/>
      <point x="258" y="309" type="curve" smooth="yes"/>
      <point x="292" y="295"/>
      <point x="343" y="283"/>
      <point x="382" y="283" type="curve" smooth="yes"/>
      <point x="445" y="283"/>
      <point x="478" y="305"/>
    </contour>
  </outline>
</glyph>
<glyph name="dieresis" format="1">
  <advance width="500"/>
  <unicode hex="00A8"/>
  <outline>
    <contour>
      <point x="523" y="718" type="line"/>
      <point x="491" y="592" type="line"/>
      <point x="371" y="592" type="line"/>
      <point x="403" y="718" type="line"/>
    </contour>
    <contour>
      <point x="322" y="718" type="line"/>
      <point x="290" y="592" type="line"/>
      <point x="171" y="592" type="line"/>
      <point x="202" y="718" type="line"/>
    </contour>
  </outline>
</glyph>
<glyph name="guillemotleft" format="1">
  <advance width="507"/>
  <unicode hex="00AB"/>
  <outline>
    <contour>
      <point x="528" y="462" type="line"/>
      <point x="389" y="264" type="line"/>
      <point x="430" y="70" type="line"/>
      <point x="354" y="70" type="line"/>
      <point x="236" y="266" type="line"/>
      <point x="442" y="462" type="line"/>
    </contour>
    <contour>
      <point x="310" y="462" type="line"/>
      <point x="170" y="264" type="line"/>
      <point x="211" y="70" type="line"/>
      <point x="135" y="70" type="line"/>
      <point x="17" y="266" type="line"/>
      <point x="223" y="462" type="line"/>
    </contour>
  </outline>
</glyph>
<glyph name="acute" format="1">
  <advance width="500"/>
  <unicode hex="00B4"/>
  <outline>
    <contour>
      <point x="502" y="743" type="line"/>
      <point x="319" y="592" type="line"/>
      <point x="220" y="592" type="line"/>
      <point x="330" y="743" type="line"/>
    </contour>
  </outline>
</glyph>
<glyph name="periodcentered" format="1">
  <advance width="236"/>
  <unicode hex="00B7"/>
  <outline>
    <contour>
      <point x="207" y="278" type="curve" smooth="yes"/>
      <point x="207" y="228"/>
      <point x="170" y="191"/>
      <point x="120" y="191" type="curve" smooth="yes"/>
      <point x="71" y="191"/>
      <point x="34" y="228"/>
      <point x="34" y="278" type="curve" smooth="yes"/>
      <point x="34" y="328"/>
      <point x="71" y="365"/>
      <point x="120" y="365" type="curve" smooth="yes"/>
      <point x="170" y="365"/>
      <point x="207" y="328"/>
    </contour>
  </outline>
</glyph>
<glyph name="guillemotright" format="1">
  <advance width="507"/>
  <unicode hex="00BB"/>
  <outline>
    <contour>
      <point x="490" y="266" type="line"/>
      <point x="285" y="70" type="line"/>
      <point x="198" y="70" type="line"/>
      <point x="337" y="268" type="line"/>
      <point x="297" y="462" type="line"/>
      <point x="373" y="462" type="line"/>
    </contour>
    <contour>
      <point x="272" y="266" type="line"/>
      <point x="66" y="70" type="line"/>
      <point x="-21" y="70" type="line"/>
      <point x="118" y="268" type="line"/>
      <point x="78" y="462" type="line"/>
      <point x="154" y="462" type="line"/>
    </contour>
  </outline>
</glyph>
<glyph name="Ccedilla" format="1">
  <advance width="605"/>
  <unicode hex="00C7"/>
  <outline>
    <contour>
      <point x="627" y="483" type="curve"/>
      <point x="470" y="454" type="line"/>
      <point x="479" y="562"/>
      <point x="455" y="611"/>
      <point x="392" y="611" type="curve" smooth="yes"/>
      <point x="322" y="611"/>
      <point x="271" y="525"/>
      <point x="234" y="391" type="curve" smooth="yes"/>
      <point x="215" y="320"/>
      <point x="207" y="266"/>
      <point x="207" y="225" type="curve" smooth="yes"/>
      <point x="207" y="222" type="line" smooth="yes"/>
      <point x="207" y="157"/>
      <point x="236" y="109"/>
      <point x="291" y="109" type="curve" smooth="yes"/>
      <point x="349" y="109"/>
      <point x="387" y="154"/>
      <point x="427" y="254" type="curve"/>
      <point x="568" y="211" type="line"/>
      <point x="504" y="60"/>
      <point x="423" y="-11"/>
      <point x="280" y="-12" type="curve"/>
      <point x="241" y="-48" type="line"/>
      <point x="253" y="-46"/>
      <point x="267" y="-45"/>
      <point x="280" y="-45" type="curve" smooth="yes"/>
      <point x="337" y="-45"/>
      <point x="364" y="-65"/>
      <point x="364" y="-100" type="curve" smooth="yes"/>
      <point x="364" y="-161"/>
      <point x="286" y="-191"/>
      <point x="177" y="-191" type="curve" smooth="yes"/>
      <point x="144" y="-191"/>
      <point x="105" y="-187"/>
      <point x="80" y="-184" type="curve"/>
      <point x="88" y="-154" type="line"/>
      <point x="114" y="-156"/>
      <point x="141" y="-159"/>
      <point x="163" y="-159" type="curve" smooth="yes"/>
      <point x="235" y="-159"/>
      <point x="271" y="-144"/>
      <point x="271" y="-120" type="curve" smooth="yes"/>
      <point x="271" y="-105"/>
      <point x="258" y="-96"/>
      <point x="233" y="-96" type="curve" smooth="yes"/>
      <point x="216" y="-96"/>
      <point x="201" y="-99"/>
      <point x="181" y="-105" type="curve"/>
      <point x="153" y="-84" type="line"/>
      <point x="233" y="-9" type="line"/>
      <point x="118" y="7"/>
      <point x="47" y="91"/>
      <point x="47" y="227" type="curve" smooth="yes"/>
      <point x="47" y="231" type="line" smooth="yes"/>
      <point x="47" y="269"/>
      <point x="53" y="327"/>
      <point x="63" y="372" type="curve" smooth="yes"/>
      <point x="115" y="604"/>
      <point x="226" y="732"/>
      <point x="406" y="732" type="curve" smooth="yes"/>
      <point x="570" y="732"/>
      <point x="639" y="633"/>
    </contour>
  </outline>
</glyph>
<glyph name="Eth" format="1">
  <advance width="673"/>
  <unicode hex="00D0"/>
  <outline>
    <contour>
      <point x="676" y="477" type="line" smooth="yes"/>
      <point x="676" y="437"/>
      <point x="672" y="401"/>
      <point x="661" y="353" type="curve" smooth="yes"/>
      <point x="605" y="111"/>
      <point x="478" y="0"/>
      <point x="266" y="0" type="curve" smooth="yes"/>
      <point x="30" y="0" type="line"/>
      <point x="108" y="310" type="line"/>
      <point x="31" y="310" type="line"/>
      <point x="62" y="434" type="line"/>
      <point x="138" y="434" type="line"/>
      <point x="210" y="720" type="line"/>
      <point x="409" y="720" type="line" smooth="yes"/>
      <point x="576" y="720"/>
      <point x="676" y="643"/>
      <point x="676" y="480" type="curve" smooth="yes"/>
    </contour>
    <contour>
      <point x="510" y="466" type="curve" smooth="yes"/>
      <point x="510" y="471" type="line" smooth="yes"/>
      <point x="510" y="553"/>
      <point x="464" y="599"/>
      <point x="387" y="599" type="curve" smooth="yes"/>
      <point x="329" y="599" type="line"/>
      <point x="288" y="434" type="line"/>
      <point x="390" y="434" type="line"/>
      <point x="360" y="310" type="line"/>
      <point x="257" y="310" type="line"/>
      <point x="210" y="121" type="line"/>
      <point x="276" y="121" type="line" smooth="yes"/>
      <point x="381" y="121"/>
      <point x="452" y="189"/>
      <point x="494" y="349" type="curve" smooth="yes"/>
      <point x="504" y="387"/>
      <point x="510" y="430"/>
    </contour>
  </outline>
</glyph>
<glyph name="Thorn" format="1">
  <advance width="588"/>
  <unicode hex="00DE"/>
  <outline>
    <contour>
      <point x="592" y="408" type="curve" smooth="yes"/>
      <point x="592" y="248"/>
      <point x="469" y="148"/>
      <point x="284" y="148" type="curve" smooth="yes"/>
      <point x="189" y="148" type="line"/>
      <point x="152" y="0" type="line"/>
      <point x="-8" y="0" type="line"/>
      <point x="171" y="720" type="line"/>
      <point x="331" y="720" type="line"/>
      <point x="299" y="592" type="line"/>
      <point x="357" y="592" type="line" smooth="yes"/>
      <point x="512" y="592"/>
      <point x="592" y="528"/>
    </contour>
    <contour>
      <point x="434" y="392" type="curve" smooth="yes"/>
      <point x="434" y="452"/>
      <point x="398" y="479"/>
      <point x="323" y="479" type="curve" smooth="yes"/>
      <point x="265" y="479" type="line"/>
      <point x="211" y="263" type="line"/>
      <point x="285" y="263" type="line" smooth="yes"/>
      <point x="375" y="263"/>
      <point x="434" y="313"/>
    </contour>
  </outline>
</glyph>
<glyph name="germandbls" format="1">
  <advance width="605"/>
  <unicode hex="00DF"/>
  <outline>
    <contour>
      <point x="606" y="606" type="curve" smooth="yes"/>
      <point x="606" y="499"/>
      <point x="522" y="442"/>
      <point x="448" y="413" type="curve"/>
      <point x="446" y="406" type="line"/>
      <point x="516" y="371"/>
      <point x="567" y="305"/>
      <point x="567" y="217" type="curve" smooth="yes"/>
      <point x="567" y="67"/>
      <point x="457" y="-7"/>
      <point x="320" y="-7" type="curve" smooth="yes"/>
      <point x="263" y="-7"/>
      <point x="226" y="2"/>
      <point x="195" y="17" type="curve"/>
      <point x="232" y="112" type="line"/>
      <point x="254" y="101"/>
      <point x="274" y="94"/>
      <point x="300" y="94" type="curve" smooth="yes"/>
      <point x="369" y="94"/>
      <point x="417" y="142"/>
      <point x="417" y="222" type="curve" smooth="yes"/>
      <point x="417" y="290"/>
      <point x="378" y="340"/>
      <point x="295" y="365" type="curve"/>
      <point x="318" y="456" type="line"/>
      <point x="396" y="464"/>
      <point x="455" y="519"/>
      <point x="455" y="589" type="curve" smooth="yes"/>
      <point x="455" y="633"/>
      <point x="427" y="660"/>
      <point x="380" y="660" type="curve" smooth="yes"/>
      <point x="324" y="660"/>
      <point x="290" y="624"/>
      <point x="272" y="552" type="curve" smooth="yes"/>
      <point x="135" y="0" type="line"/>
      <point x="-16" y="0" type="line"/>
      <point x="122" y="558" type="line" smooth="yes"/>
      <point x="157" y="701"/>
      <point x="248" y="759"/>
      <point x="402" y="759" type="curve" smooth="yes"/>
      <point x="529" y="759"/>
      <point x="606" y="698"/>
    </contour>
  </outline>
</glyph>
<glyph name="eth" format="1">
  <advance width="528"/>
  <unicode hex="00F0"/>
  <outline>
    <contour>
      <point x="579" y="762" type="line"/>
      <point x="565" y="707" type="line"/>
      <point x="468" y="670" type="line"/>
      <point x="503" y="609"/>
      <point x="523" y="539"/>
      <point x="523" y="462" type="curve" smooth="yes"/>
      <point x="523" y="458" type="line" smooth="yes"/>
      <point x="523" y="402"/>
      <point x="514" y="347"/>
      <point x="490" y="252" type="curve" smooth="yes"/>
      <point x="446" y="78"/>
      <point x="353" y="-10"/>
      <point x="213" y="-10" type="curve" smooth="yes"/>
      <point x="92" y="-10"/>
      <point x="20" y="55"/>
      <point x="20" y="179" type="curve" smooth="yes"/>
      <point x="20" y="181" type="line" smooth="yes"/>
      <point x="20" y="211"/>
      <point x="26" y="251"/>
      <point x="35" y="287" type="curve" smooth="yes"/>
      <point x="74" y="442"/>
      <point x="160" y="535"/>
      <point x="275" y="535" type="curve" smooth="yes"/>
      <point x="344" y="535"/>
      <point x="382" y="498"/>
      <point x="402" y="441" type="curve"/>
      <point x="407" y="441" type="line"/>
      <point x="412" y="510"/>
      <point x="393" y="575"/>
      <point x="358" y="632" type="curve"/>
      <point x="222" y="580" type="line"/>
      <point x="236" y="635" type="line"/>
      <point x="327" y="671" type="line"/>
      <point x="310" y="690"/>
      <point x="291" y="709"/>
      <point x="269" y="725" type="curve"/>
      <point x="400" y="762" type="line"/>
      <point x="414" y="745"/>
      <point x="429" y="728"/>
      <point x="441" y="710" type="curve"/>
    </contour>
    <contour>
      <point x="358" y="373" type="curve" smooth="yes"/>
      <point x="358" y="375" type="line" smooth="yes"/>
      <point x="358" y="430"/>
      <point x="338" y="452"/>
      <point x="301" y="452" type="curve" smooth="yes"/>
      <point x="248" y="452"/>
      <point x="213" y="384"/>
      <point x="185" y="276" type="curve" smooth="yes"/>
      <point x="172" y="224"/>
      <point x="166" y="186"/>
      <point x="166" y="159" type="curve" smooth="yes"/>
      <point x="166" y="157" type="line" smooth="yes"/>
      <point x="166" y="102"/>
      <point x="186" y="80"/>
      <point x="222" y="80" type="curve" smooth="yes"/>
      <point x="276" y="80"/>
      <point x="311" y="148"/>
      <point x="339" y="257" type="curve" smooth="yes"/>
      <point x="352" y="309"/>
      <point x="358" y="346"/>
    </contour>
  </outline>
</glyph>
<glyph name="divide" format="1">
  <advance width="600"/>
  <unicode hex="00F7"/>
  <outline>
    <contour>
      <point x="406" y="584" type="curve" smooth="yes"/>
      <point x="406" y="536"/>
      <point x="370" y="500"/>
      <point x="322" y="500" type="curve" smooth="yes"/>
      <point x="274" y="500"/>
      <point x="238" y="536"/>
      <point x="238" y="584" type="curve" smooth="yes"/>
      <point x="238" y="632"/>
      <point x="274" y="668"/>
      <point x="322" y="668" type="curve" smooth="yes"/>
      <point x="370" y="668"/>
      <point x="406" y="632"/>
    </contour>
    <contour>
      <point x="584" y="294" type="line"/>
      <point x="60" y="294" type="line"/>
      <point x="60" y="416" type="line"/>
      <point x="584" y="416" type="line"/>
    </contour>
    <contour>
      <point x="406" y="126" type="curve" smooth="yes"/>
      <point x="406" y="78"/>
      <point x="370" y="42"/>
      <point x="322" y="42" type="curve" smooth="yes"/>
      <point x="274" y="42"/>
      <point x="238" y="78"/>
      <point x="238" y="126" type="curve" smooth="yes"/>
      <point x="238" y="174"/>
      <point x="274" y="210"/>
      <point x="322" y="210" type="curve" smooth="yes"/>
      <point x="370" y="210"/>
      <point x="406" y="174"/>
    </contour>
  </outline>
</glyph>
<glyph name="oslash" format="1">
  <advance width="523"/>
  <unicode hex="00F8"/>
  <outline>
    <contour>
      <point x="577" y="627" type="line"/>
      <point x="462" y="483" type="line"/>
      <point x="489" y="451"/>
      <point x="503" y="408"/>
      <point x="503" y="353" type="curve" smooth="yes"/>
      <point x="503" y="351" type="line" smooth="yes"/>
      <point x="503" y="321"/>
      <point x="497" y="281"/>
      <point x="488" y="245" type="curve" smooth="yes"/>
      <point x="449" y="88"/>
      <point x="360" y="-10"/>
      <point x="213" y="-10" type="curve" smooth="yes"/>
      <point x="172" y="-10"/>
      <point x="137" y="-3"/>
      <point x="108" y="12" type="curve"/>
      <point x="31" y="-95" type="line"/>
      <point x="-53" y="-95" type="line"/>
      <point x="60" y="49" type="line"/>
      <point x="34" y="81"/>
      <point x="20" y="124"/>
      <point x="20" y="179" type="curve" smooth="yes"/>
      <point x="20" y="181" type="line" smooth="yes"/>
      <point x="20" y="211"/>
      <point x="26" y="251"/>
      <point x="35" y="287" type="curve" smooth="yes"/>
      <point x="75" y="444"/>
      <point x="164" y="542"/>
      <point x="310" y="542" type="curve" smooth="yes"/>
      <point x="351" y="542"/>
      <point x="386" y="535"/>
      <point x="415" y="520" type="curve"/>
      <point x="492" y="627" type="line"/>
    </contour>
    <contour>
      <point x="354" y="434" type="line"/>
      <point x="343" y="449"/>
      <point x="326" y="457"/>
      <point x="305" y="457" type="curve" smooth="yes"/>
      <point x="244" y="457"/>
      <point x="203" y="398"/>
      <point x="175" y="296" type="curve" smooth="yes"/>
      <point x="160" y="244"/>
      <point x="152" y="198"/>
      <point x="152" y="164" type="curve" smooth="yes"/>
      <point x="152" y="162" type="line" smooth="yes"/>
      <point x="152" y="159"/>
      <point x="152" y="156"/>
      <point x="152" y="153" type="curve"/>
    </contour>
    <contour>
      <point x="371" y="368" type="curve" smooth="yes"/>
      <point x="371" y="370" type="line" smooth="yes"/>
      <point x="371" y="373"/>
      <point x="371" y="377"/>
      <point x="371" y="379" type="curve"/>
      <point x="169" y="98" type="line"/>
      <point x="181" y="83"/>
      <point x="197" y="76"/>
      <point x="218" y="76" type="curve" smooth="yes"/>
      <point x="280" y="76"/>
      <point x="320" y="134"/>
      <point x="348" y="236" type="curve" smooth="yes"/>
      <point x="363" y="288"/>
      <point x="371" y="334"/>
    </contour>
  </outline>
</glyph>
<glyph name="Lslash" format="1">
  <advance width="563"/>
  <unicode hex="0141"/>
  <outline>
    <contour>
      <point x="512" y="133" type="line"/>
      <point x="478" y="0" type="line"/>
      <point x="30" y="0" type="line"/>
      <point x="102" y="287" type="line"/>
      <point x="17" y="255" type="line"/>
      <point x="48" y="380" type="line"/>
      <point x="133" y="412" type="line"/>
      <point x="210" y="720" type="line"/>
      <point x="366" y="720" type="line"/>
      <point x="305" y="475" type="line"/>
      <point x="448" y="530" type="line"/>
      <point x="416" y="404" type="line"/>
      <point x="273" y="350" type="line"/>
      <point x="219" y="133" type="line"/>
    </contour>
  </outline>
</glyph>
<glyph name="lslash" format="1">
  <advance width="339"/>
  <unicode hex="0142"/>
  <outline>
    <contour>
      <point x="377" y="500" type="line"/>
      <point x="347" y="379" type="line"/>
      <point x="262" y="347" type="line"/>
      <point x="176" y="0" type="line"/>
      <point x="31" y="0" type="line"/>
      <point x="103" y="289" type="line"/>
      <point x="18" y="257" type="line"/>
      <point x="48" y="378" type="line"/>
      <point x="133" y="410" type="line"/>
      <point x="213" y="733" type="line"/>
      <point x="364" y="757" type="line"/>
      <point x="292" y="467" type="line"/>
    </contour>
  </outline>
</glyph>
<glyph name="OE" format="1">
  <advance width="901"/>
  <unicode hex="0152"/>
  <outline>
    <contour>
      <point x="973" y="720" type="line"/>
      <point x="942" y="596" type="line"/>
      <point x="649" y="596" type="line"/>
      <point x="607" y="430" type="line"/>
      <point x="824" y="430" type="line"/>
      <point x="795" y="313" type="line"/>
      <point x="578" y="313" type="line"/>
      <point x="531" y="124" type="line"/>
      <point x="836" y="124" type="line"/>
      <point x="805" y="0" type="line"/>
      <point x="312" y="0" type="line" smooth="yes"/>
      <point x="144" y="0"/>
      <point x="45" y="77"/>
      <point x="45" y="240" type="curve" smooth="yes"/>
      <point x="45" y="243" type="line" smooth="yes"/>
      <point x="45" y="283"/>
      <point x="49" y="319"/>
      <point x="60" y="367" type="curve" smooth="yes"/>
      <point x="115" y="609"/>
      <point x="242" y="720"/>
      <point x="454" y="720" type="curve" smooth="yes"/>
    </contour>
    <contour>
      <point x="495" y="599" type="line"/>
      <point x="445" y="599" type="line" smooth="yes"/>
      <point x="339" y="599"/>
      <point x="268" y="531"/>
      <point x="226" y="371" type="curve" smooth="yes"/>
      <point x="216" y="333"/>
      <point x="211" y="290"/>
      <point x="211" y="254" type="curve" smooth="yes"/>
      <point x="211" y="249" type="line" smooth="yes"/>
      <point x="211" y="167"/>
      <point x="256" y="121"/>
      <point x="334" y="121" type="curve" smooth="yes"/>
      <point x="376" y="121" type="line"/>
    </contour>
  </outline>
</glyph>
<glyph name="oe" format="1">
  <advance width="811"/>
  <unicode hex="0153"/>
  <outline>
    <contour>
      <point x="795" y="366" type="curve" smooth="yes"/>
      <point x="795" y="326"/>
      <point x="787" y="282"/>
      <point x="773" y="231" type="curve"/>
      <point x="479" y="231" type="line"/>
      <point x="477" y="217"/>
      <point x="476" y="203"/>
      <point x="476" y="190" type="curve" smooth="yes"/>
      <point x="476" y="188" type="line" smooth="yes"/>
      <point x="476" y="123"/>
      <point x="509" y="94"/>
      <point x="571" y="94" type="curve" smooth="yes"/>
      <point x="609" y="94"/>
      <point x="660" y="109"/>
      <point x="718" y="135" type="curve"/>
      <point x="733" y="38" type="line"/>
      <point x="664" y="8"/>
      <point x="616" y="-8"/>
      <point x="545" y="-8" type="curve" smooth="yes"/>
      <point x="460" y="-8"/>
      <point x="411" y="28"/>
      <point x="393" y="100" type="curve"/>
      <point x="385" y="100" type="line"/>
      <point x="343" y="34"/>
      <point x="282" y="-10"/>
      <point x="198" y="-10" type="curve" smooth="yes"/>
      <point x="97" y="-10"/>
      <point x="20" y="55"/>
      <point x="20" y="179" type="curve" smooth="yes"/>
      <point x="20" y="181" type="line" smooth="yes"/>
      <point x="20" y="211"/>
      <point x="26" y="251"/>
      <point x="35" y="287" type="curve" smooth="yes"/>
      <point x="75" y="445"/>
      <point x="168" y="542"/>
      <point x="296" y="542" type="curve" smooth="yes"/>
      <point x="376" y="542"/>
      <point x="424" y="503"/>
      <point x="444" y="434" type="curve"/>
      <point x="451" y="434" type="line"/>
      <point x="496" y="502"/>
      <point x="549" y="542"/>
      <point x="629" y="542" type="curve" smooth="yes"/>
      <point x="746" y="542"/>
      <point x="795" y="470"/>
    </contour>
    <contour>
      <point x="662" y="375" type="curve" smooth="yes"/>
      <point x="662" y="423"/>
      <point x="649" y="455"/>
      <point x="608" y="455" type="curve" smooth="yes"/>
      <point x="560" y="455"/>
      <point x="515" y="384"/>
      <point x="491" y="292" type="curve"/>
      <point x="649" y="292" type="line"/>
      <point x="657" y="325"/>
      <point x="662" y="355"/>
    </contour>
    <contour>
      <point x="357" y="373" type="curve" smooth="yes"/>
      <point x="357" y="375" type="line" smooth="yes"/>
      <point x="357" y="428"/>
      <point x="337" y="452"/>
      <point x="300" y="452" type="curve" smooth="yes"/>
      <point x="248" y="452"/>
      <point x="213" y="385"/>
      <point x="185" y="276" type="curve" smooth="yes"/>
      <point x="171" y="224"/>
      <point x="166" y="186"/>
      <point x="166" y="159" type="curve" smooth="yes"/>
      <point x="166" y="157" type="line" smooth="yes"/>
      <point x="166" y="102"/>
      <point x="186" y="80"/>
      <point x="220" y="80" type="curve" smooth="yes"/>
      <point x="273" y="80"/>
      <point x="310" y="148"/>
      <point x="338" y="257" type="curve" smooth="yes"/>
      <point x="351" y="309"/>
      <point x="357" y="346"/>
    </contour>
  </outline>
</glyph>
<glyph name="florin" format="1">
  <advance width="467"/>
  <unicode hex="0192"/>
  <outline>
    <contour>
      <point x="531" y="703" type="curve"/>
      <point x="506" y="603" type="line"/>
      <point x="480" y="616"/>
      <point x="458" y="624"/>
      <point x="424" y="624" type="curve" smooth="yes"/>
      <point x="383" y="624"/>
      <point x="363" y="599"/>
      <point x="351" y="551" type="curve" smooth="yes"/>
      <point x="331" y="469" type="line"/>
      <point x="452" y="469" type="line"/>
      <point x="427" y="367" type="line"/>
      <point x="306" y="367" type="line"/>
      <point x="205" y="-39" type="line" smooth="yes"/>
      <point x="176" y="-155"/>
      <point x="110" y="-190"/>
      <point x="13" y="-190" type="curve" smooth="yes"/>
      <point x="-33" y="-190"/>
      <point x="-69" y="-183"/>
      <point x="-99" y="-173" type="curve"/>
      <point x="-76" y="-82" type="line"/>
      <point x="-57" y="-90"/>
      <point x="-40" y="-94"/>
      <point x="-20" y="-94" type="curve" smooth="yes"/>
      <point x="20" y="-94"/>
      <point x="45" y="-76"/>
      <point x="57" y="-26" type="curve" smooth="yes"/>
      <point x="155" y="367" type="line"/>
      <point x="59" y="367" type="line"/>
      <point x="84" y="469" type="line"/>
      <point x="180" y="469" type="line"/>
      <point x="205" y="568" type="line" smooth="yes"/>
      <point x="233" y="680"/>
      <point x="293" y="726"/>
      <point x="394" y="726" type="curve" smooth="yes"/>
      <point x="451" y="726"/>
      <point x="490" y="719"/>
    </contour>
  </outline>
</glyph>
<glyph name="breve" format="1">
  <advance width="500"/>
  <unicode hex="02D8"/>
  <outline>
    <contour>
      <point x="524" y="758" type="line"/>
      <point x="495" y="652"/>
      <point x="438" y="589"/>
      <point x="332" y="589" type="curve" smooth="yes"/>
      <point x="243" y="589"/>
      <point x="200" y="633"/>
      <point x="200" y="707" type="curve" smooth="yes"/>
      <point x="200" y="722"/>
      <point x="202" y="740"/>
      <point x="206" y="758" type="curve"/>
      <point x="265" y="758" type="line"/>
      <point x="265" y="752"/>
      <point x="264" y="746"/>
      <point x="264" y="742" type="curve" smooth="yes"/>
      <point x="264" y="697"/>
      <point x="287" y="669"/>
      <point x="344" y="669" type="curve" smooth="yes"/>
      <point x="407" y="669"/>
      <point x="440" y="703"/>
      <point x="461" y="758" type="curve"/>
    </contour>
  </outline>
</glyph>
<glyph name="ring" format="1">
  <advance width="500"/>
  <unicode hex="02DA"/>
  <outline>
    <contour>
      <point x="472" y="686" type="curve" smooth="yes"/>
      <point x="472" y="625"/>
      <point x="425" y="585"/>
      <point x="348" y="585" type="curve" smooth="yes"/>
      <point x="270" y="585"/>
      <point x="223" y="625"/>
      <point x="223" y="686" type="curve" smooth="yes"/>
      <point x="223" y="745"/>
      <point x="270" y="786"/>
      <point x="348" y="786" type="curve" smooth="yes"/>
      <point x="425" y="786"/>
      <point x="472" y="745"/>
    </contour>
    <contour>
      <point x="399" y="686" type="curve" smooth="yes"/>
      <point x="399" y="717"/>
      <point x="377" y="739"/>
      <point x="348" y="739" type="curve" smooth="yes"/>
      <point x="318" y="739"/>
      <point x="297" y="717"/>
      <point x="297" y="686" type="curve" smooth="yes"/>
      <point x="297" y="655"/>
      <point x="317" y="632"/>
      <point x="348" y="632" type="curve" smooth="yes"/>
      <point x="378" y="632"/>
      <point x="399" y="655"/>
    </contour>
  </outline>
</glyph>
<glyph name="hungarumlaut" format="1">
  <advance width="500"/>
  <unicode hex="02DD"/>
  <outline>
    <contour>
      <point x="593" y="743" type="line"/>
      <point x="412" y="592" type="line"/>
      <point x="322" y="592" type="line"/>
      <point x="432" y="743" type="line"/>
    </contour>
    <contour>
      <point x="383" y="743" type="line"/>
      <point x="201" y="592" type="line"/>
      <point x="111" y="592" type="line"/>
      <point x="221" y="743" type="line"/>
    </contour>
  </outline>
</glyph>
<glyph name="emdash" format="1">
  <advance width="1000"/>
  <unicode hex="2014"/>
  <outline>
    <contour>
      <point x="988" y="350" type="line"/>
      <point x="956" y="226" type="line"/>
      <point x="22" y="226" type="line"/>
      <point x="54" y="350" type="line"/>
    </contour>
  </outline>
</glyph>
<glyph name="quoteright" format="1">
  <advance width="236"/>
  <unicode hex="2019"/>
  <unicode hex="02BC"/>
  <outline>
    <contour>
      <point x="336" y="720" type="line"/>
      <point x="167" y="440" type="line"/>
      <point x="77" y="440" type="line"/>
      <point x="171" y="720" type="line"/>
    </contour>
  </outline>
</glyph>
<glyph name="quotesinglbase" format="1">
  <advance width="236"/>
  <unicode hex="201A"/>
  <outline>
    <contour>
      <point x="194" y="165" type="line"/>
      <point x="25" y="-115" type="line"/>
      <point x="-65" y="-115" type="line"/>
      <point x="28" y="165" type="line"/>
    </contour>
  </outline>
</glyph>
<glyph name="quotedblleft" format="1">
  <advance width="442"/>
  <unicode hex="201C"/>
  <outline>
    <contour>
      <point x="489" y="720" type="line"/>
      <point x="451" y="440" type="line"/>
      <point x="374" y="440" type="line"/>
      <point x="335" y="720" type="line"/>
    </contour>
    <contour>
      <point x="288" y="720" type="line"/>
      <point x="250" y="440" type="line"/>
      <point x="173" y="440" type="line"/>
      <point x="134" y="720" type="line"/>
    </contour>
  </outline>
</glyph>
<glyph name="quotedblright" format="1">
  <advance width="442"/>
  <unicode hex="201D"/>
  <outline>
    <contour>
      <point x="542" y="720" type="line"/>
      <point x="373" y="440" type="line"/>
      <point x="286" y="440" type="line"/>
      <point x="380" y="720" type="line"/>
    </contour>
    <contour>
      <point x="333" y="720" type="line"/>
      <point x="164" y="440" type="line"/>
      <point x="77" y="440" type="line"/>
      <point x="171" y="720" type="line"/>
    </contour>
  </outline>
</glyph>
<glyph name="dagger" format="1">
  <advance width="480"/>
  <unicode hex="2020"/>
  <outline>
    <contour>
      <point x="526" y="552" type="line"/>
      <point x="498" y="437" type="line"/>
      <point x="334" y="472" type="line"/>
      <point x="337" y="340" type="line"/>
      <point x="200" y="0" type="line"/>
      <point x="146" y="0" type="line"/>
      <point x="179" y="340" type="line"/>
      <point x="248" y="472" type="line"/>
      <point x="67" y="437" type="line"/>
      <point x="95" y="552" type="line"/>
      <point x="258" y="516" type="line"/>
      <point x="274" y="720" type="line"/>
      <point x="432" y="720" type="line"/>
      <point x="345" y="516" type="line"/>
    </contour>
  </outline>
</glyph>
<glyph name="daggerdbl" format="1">
  <advance width="510"/>
  <unicode hex="2021"/>
  <outline>
    <contour>
      <point x="547" y="572" type="line"/>
      <point x="518" y="457" type="line"/>
      <point x="351" y="492" type="line"/>
      <point x="354" y="360" type="line"/>
      <point x="286" y="228" type="line"/>
      <point x="470" y="263" type="line"/>
      <point x="441" y="148" type="line"/>
      <point x="274" y="184" type="line"/>
      <point x="267" y="0" type="line"/>
      <point x="109" y="0" type="line"/>
      <point x="194" y="184" type="line"/>
      <point x="10" y="148" type="line"/>
      <point x="39" y="263" type="line"/>
      <point x="206" y="228" type="line"/>
      <point x="202" y="360" type="line"/>
      <point x="271" y="492" type="line"/>
      <point x="87" y="457" type="line"/>
      <point x="116" y="572" type="line"/>
      <point x="283" y="536" type="line"/>
      <point x="289" y="720" type="line"/>
      <point x="447" y="720" type="line"/>
      <point x="363" y="536" type="line"/>
    </contour>
  </outline>
</glyph>
<glyph name="ellipsis" format="1">
  <advance width="716"/>
  <unicode hex="2026"/>
  <outline>
    <contour>
      <point x="639" y="76" type="curve" smooth="yes"/>
      <point x="639" y="29"/>
      <point x="603" y="-7"/>
      <point x="556" y="-7" type="curve" smooth="yes"/>
      <point x="508" y="-7"/>
      <point x="473" y="29"/>
      <point x="473" y="76" type="curve" smooth="yes"/>
      <point x="473" y="124"/>
      <point x="508" y="159"/>
      <point x="556" y="159" type="curve" smooth="yes"/>
      <point x="603" y="159"/>
      <point x="639" y="124"/>
    </contour>
    <contour>
      <point x="396" y="76" type="curve" smooth="yes"/>
      <point x="396" y="29"/>
      <point x="361" y="-7"/>
      <point x="313" y="-7" type="curve" smooth="yes"/>
      <point x="265" y="-7"/>
      <point x="230" y="29"/>
      <point x="230" y="76" type="curve" smooth="yes"/>
      <point x="230" y="124"/>
      <point x="265" y="159"/>
      <point x="313" y="159" type="curve" smooth="yes"/>
      <point x="361" y="159"/>
      <point x="396" y="124"/>
    </contour>
    <contour>
      <point x="154" y="76" type="curve" smooth="yes"/>
      <point x="154" y="29"/>
      <point x="118" y="-7"/>
      <point x="70" y="-7" type="curve" smooth="yes"/>
      <point x="23" y="-7"/>
      <point x="-13" y="29"/>
      <point x="-13" y="76" type="curve" smooth="yes"/>
      <point x="-13" y="124"/>
      <point x="23" y="159"/>
      <point x="70" y="159" type="curve" smooth="yes"/>
      <point x="118" y="159"/>
      <point x="154" y="124"/>
    </contour>
  </outline>
</glyph>
<glyph name="Euro" format="1">
  <advance width="608"/>
  <unicode hex="20AC"/>
  <outline>
    <contour>
      <point x="643" y="562" type="curve"/>
      <point x="525" y="489" type="line"/>
      <point x="499" y="577"/>
      <point x="465" y="619"/>
      <point x="398" y="619" type="curve" smooth="yes"/>
      <point x="327" y="619"/>
      <point x="274" y="559"/>
      <point x="240" y="461" type="curve"/>
      <point x="443" y="461" type="line"/>
      <point x="427" y="395" type="line"/>
      <point x="221" y="395" type="line"/>
      <point x="213" y="367"/>
      <point x="208" y="340"/>
      <point x="204" y="315" type="curve"/>
      <point x="407" y="315" type="line"/>
      <point x="390" y="249" type="line"/>
      <point x="197" y="249" type="line"/>
      <point x="196" y="242"/>
      <point x="196" y="236"/>
      <point x="196" y="230" type="curve" smooth="yes"/>
      <point x="196" y="226" type="line" smooth="yes"/>
      <point x="196" y="154"/>
      <point x="231" y="99"/>
      <point x="304" y="99" type="curve" smooth="yes"/>
      <point x="364" y="99"/>
      <point x="413" y="138"/>
      <point x="474" y="215" type="curve"/>
      <point x="549" y="129" type="line"/>
      <point x="472" y="35"/>
      <point x="392" y="-12"/>
      <point x="287" y="-12" type="curve" smooth="yes"/>
      <point x="134" y="-12"/>
      <point x="47" y="76"/>
      <point x="47" y="227" type="curve" smooth="yes"/>
      <point x="47" y="231" type="line" smooth="yes"/>
      <point x="47" y="273"/>
      <point x="52" y="332"/>
      <point x="62" y="374" type="curve" smooth="yes"/>
      <point x="113" y="598"/>
      <point x="222" y="732"/>
      <point x="405" y="732" type="curve" smooth="yes"/>
      <point x="540" y="732"/>
      <point x="605" y="672"/>
    </contour>
  </outline>
</glyph>
<glyph name="trademark" format="1">
  <advance width="780"/>
  <unicode hex="2122"/>
  <outline>
    <contour>
      <point x="845" y="720" type="line"/>
      <point x="761" y="381" type="line"/>
      <point x="682" y="381" type="line"/>
      <point x="745" y="634" type="line"/>
      <point x="743" y="634" type="line"/>
      <point x="607" y="381" type="line"/>
      <point x="530" y="381" type="line"/>
      <point x="520" y="634" type="line"/>
      <point x="517" y="634" type="line"/>
      <point x="455" y="381" type="line"/>
      <point x="380" y="381" type="line"/>
      <point x="464" y="720" type="line"/>
      <point x="585" y="720" type="line"/>
      <point x="594" y="485" type="line"/>
      <point x="596" y="485" type="line"/>
      <point x="724" y="720" type="line"/>
    </contour>
    <contour>
      <point x="413" y="720" type="line"/>
      <point x="396" y="651" type="line"/>
      <point x="303" y="651" type="line"/>
      <point x="236" y="381" type="line"/>
      <point x="152" y="381" type="line"/>
      <point x="219" y="651" type="line"/>
      <point x="125" y="651" type="line"/>
      <point x="143" y="720" type="line"/>
    </contour>
  </outline>
</glyph>
<glyph name="minus" format="1">
  <advance width="600"/>
  <unicode hex="2212"/>
  <outline>
    <contour>
      <point x="584" y="289" type="line"/>
      <point x="60" y="289" type="line"/>
      <point x="60" y="421" type="line"/>
      <point x="584" y="421" type="line"/>
    </contour>
  </outline>
</glyph>
<glyph name="radical" format="1">
  <advance width="603"/>
  <unicode hex="221A"/>
  <outline>
    <contour>
      <point x="690" y="720" type="line"/>
      <point x="291" y="-4" type="line"/>
      <point x="127" y="-4" type="line"/>
      <point x="44" y="340" type="line"/>
      <point x="195" y="340" type="line"/>
      <point x="232" y="120" type="line"/>
      <point x="518" y="720" type="line"/>
    </contour>
  </outline>
</glyph>
<glyph name="apple" format="1">
  <advance width="500"/>
  <unicode hex="F8FF"/>
  <outline>
    <contour>
      <point x="535" y="507" type="line"/>
      <point x="352" y="501" type="line"/>
      <point x="472" y="359" type="line"/>
      <point x="471" y="351" type="line"/>
      <point x="282" y="217" type="line"/>
      <point x="457" y="199" type="line"/>
      <point x="379" y="66" type="line"/>
      <point x="252" y="170" type="line"/>
      <point x="255" y="0" type="line"/>
      <point x="110" y="0" type="line"/>
      <point x="200" y="170" type="line"/>
      <point x="23" y="79" type="line"/>
      <point x="12" y="213" type="line"/>
      <point x="194" y="219" type="line"/>
      <point x="74" y="361" type="line"/>
      <point x="76" y="369" type="line"/>
      <point x="265" y="503" type="line"/>
      <point x="89" y="521" type="line"/>
      <point x="167" y="654" type="line"/>
      <point x="295" y="550" type="line"/>
      <point x="292" y="720" type="line"/>
      <point x="436" y="720" type="line"/>
      <point x="347" y="550" type="line"/>
      <point x="524" y="641" type="line"/>
    </contour>
    <contour>
      <point x="345" y="357" type="line"/>
      <point x="305" y="488" type="line"/>
      <point x="202" y="363" type="line"/>
      <point x="242" y="232" type="line"/>
    </contour>
  </outline>
</glyph>
<glyph name="fl" format="1">
  <advance width="647"/>
  <unicode hex="FB02"/>
  <outline>
    <contour>
      <point x="713" y="757" type="line"/>
      <point x="526" y="0" type="line"/>
      <point x="375" y="0" type="line"/>
      <point x="558" y="733" type="line"/>
    </contour>
    <contour>
      <point x="507" y="745" type="curve"/>
      <point x="482" y="645" type="line"/>
      <point x="465" y="652"/>
      <point x="445" y="657"/>
      <point x="418" y="657" type="curve" smooth="yes"/>
      <point x="374" y="657"/>
      <point x="346" y="638"/>
      <point x="333" y="585" type="curve" smooth="yes"/>
      <point x="319" y="529" type="line"/>
      <point x="445" y="529" type="line"/>
      <point x="420" y="428" type="line"/>
      <point x="295" y="428" type="line"/>
      <point x="188" y="0" type="line"/>
      <point x="40" y="0" type="line"/>
      <point x="147" y="428" type="line"/>
      <point x="52" y="428" type="line"/>
      <point x="77" y="529" type="line"/>
      <point x="172" y="529" type="line"/>
      <point x="190" y="602" type="line" smooth="yes"/>
      <point x="218" y="716"/>
      <point x="278" y="759"/>
      <point x="397" y="759" type="curve" smooth="yes"/>
      <point x="444" y="759"/>
      <point x="477" y="754"/>
    </contour>
  </outline>
</glyph>
<glyph name="I.salt" format="1">
  <advance width="286"/>
  <outline>
    <contour>
      <point x="336" y="720" type="line"/>
      <point x="156" y="0" type="line"/>
      <point x="-4" y="0" type="line"/>
      <point x="176" y="720" type="line"/>
    </contour>
  </outline>
</glyph>
<glyph name="a.salt" format="1">
  <advance width="520"/>
  <outline>
    <contour>
      <point x="488" y="417" type="curve" smooth="yes"/>
      <point x="488" y="397"/>
      <point x="485" y="374"/>
      <point x="479" y="349" type="curve" smooth="yes"/>
      <point x="420" y="109" type="line" smooth="yes"/>
      <point x="418" y="100"/>
      <point x="416" y="90"/>
      <point x="416" y="83" type="curve" smooth="yes"/>
      <point x="416" y="64"/>
      <point x="427" y="54"/>
      <point x="455" y="50" type="curve"/>
      <point x="441" y="-5" type="line"/>
      <point x="329" y="-3"/>
      <point x="286" y="25"/>
      <point x="280" y="74" type="curve"/>
      <point x="274" y="74" type="line"/>
      <point x="211" y="19"/>
      <point x="169" y="-6"/>
      <point x="111" y="-6" type="curve" smooth="yes"/>
      <point x="40" y="-6"/>
      <point x="-7" y="32"/>
      <point x="-7" y="106" type="curve" smooth="yes"/>
      <point x="-7" y="219"/>
      <point x="86" y="306"/>
      <point x="331" y="315" type="curve"/>
      <point x="341" y="353" type="line" smooth="yes"/>
      <point x="344" y="365"/>
      <point x="345" y="377"/>
      <point x="345" y="386" type="curve" smooth="yes"/>
      <point x="345" y="418"/>
      <point x="325" y="436"/>
      <point x="282" y="436" type="curve" smooth="yes"/>
      <point x="236" y="436"/>
      <point x="195" y="424"/>
      <point x="126" y="395" type="curve"/>
      <point x="104" y="485" type="line"/>
      <point x="181" y="520"/>
      <point x="249" y="538"/>
      <point x="324" y="538" type="curve" smooth="yes"/>
      <point x="435" y="538"/>
      <point x="488" y="494"/>
    </contour>
    <contour>
      <point x="318" y="259" type="line"/>
      <point x="180" y="251"/>
      <point x="136" y="196"/>
      <point x="136" y="141" type="curve" smooth="yes"/>
      <point x="136" y="103"/>
      <point x="157" y="82"/>
      <point x="198" y="82" type="curve" smooth="yes"/>
      <point x="223" y="82"/>
      <point x="250" y="96"/>
      <point x="284" y="126" type="curve"/>
    </contour>
  </outline>
</glyph>
<glyph name="bullet" format="1">
  <advance width="428"/>
  <outline>
    <contour>
      <point x="415" y="373" type="curve" smooth="yes"/>
      <point x="415" y="275"/>
      <point x="338" y="199"/>
      <point x="240" y="199" type="curve" smooth="yes"/>
      <point x="142" y="199"/>
      <point x="66" y="275"/>
      <point x="66" y="373" type="curve" smooth="yes"/>
      <point x="66" y="471"/>
      <point x="142" y="547"/>
      <point x="240" y="547" type="curve" smooth="yes"/>
      <point x="338" y="547"/>
      <point x="415" y="471"/>
    </contour>
  </outline>
</glyph>
<glyph name="registered" format="1">
  <advance width="512"/>
  <outline>
    <contour>
      <point x="538" y="504" type="curve" smooth="yes"/>
      <point x="538" y="377"/>
      <point x="442" y="280"/>
      <point x="314" y="280" type="curve" smooth="yes"/>
      <point x="187" y="280"/>
      <point x="92" y="375"/>
      <point x="92" y="503" type="curve" smooth="yes"/>
      <point x="92" y="631"/>
      <point x="188" y="727"/>
      <point x="316" y="727" type="curve" smooth="yes"/>
      <point x="443" y="727"/>
      <point x="538" y="632"/>
    </contour>
    <contour>
      <point x="510" y="503" type="curve" smooth="yes"/>
      <point x="510" y="618"/>
      <point x="429" y="703"/>
      <point x="314" y="703" type="curve" smooth="yes"/>
      <point x="200" y="703"/>
      <point x="120" y="618"/>
      <point x="120" y="504" type="curve" smooth="yes"/>
      <point x="120" y="390"/>
      <point x="201" y="305"/>
      <point x="316" y="305" type="curve" smooth="yes"/>
      <point x="430" y="305"/>
      <point x="510" y="389"/>
    </contour>
    <contour>
      <point x="428" y="380" type="line"/>
      <point x="361" y="380" type="line"/>
      <point x="305" y="480" type="line"/>
      <point x="290" y="480" type="line"/>
      <point x="290" y="380" type="line"/>
      <point x="227" y="380" type="line"/>
      <point x="227" y="636" type="line"/>
      <point x="322" y="636" type="line" smooth="yes"/>
      <point x="379" y="636"/>
      <point x="415" y="611"/>
      <point x="415" y="559" type="curve" smooth="yes"/>
      <point x="415" y="524"/>
      <point x="397" y="500"/>
      <point x="366" y="489" type="curve"/>
    </contour>
    <contour>
      <point x="354" y="558" type="curve" smooth="yes"/>
      <point x="354" y="581"/>
      <point x="340" y="592"/>
      <point x="315" y="592" type="curve" smooth="yes"/>
      <point x="286" y="592" type="line"/>
      <point x="286" y="522" type="line"/>
      <point x="315" y="522" type="line" smooth="yes"/>
      <point x="340" y="522"/>
      <point x="354" y="534"/>
    </contour>
  </outline>
</glyph>
